<?xml version="1.0" encoding="utf-8"?>
<!-- Generator: Adobe Illustrator 23.0.5, SVG Export Plug-In . SVG Version: 6.00 Build 0)  -->
<svg version="1.1" id="Layer_1" xmlns="http://www.w3.org/2000/svg" xmlns:xlink="http://www.w3.org/1999/xlink" x="0px" y="0px"
	 viewBox="0 0 1696 1367" style="enable-background:new 0 0 1696 1367;" xml:space="preserve">
<style type="text/css">
	.st0{fill:#FFFFFF;}
</style>
<g>
	<path class="st0" d="M25,1008.1c-5.6-14.1-8.9-28.8-12.3-43.5c-5.4-22.8-8.3-46-10.6-69.3c-0.1-1.5,0.1-3-1-4.3c0-21.3,0-42.7,0-64
		c1.8-4.4,1.6-9.1,2.1-13.6c6-61.3,23-119.4,51-174.2c3-5.9,6.4-11.6,9.7-17.4c8.7,9.2,20.8,8.5,31.7,10.7
		c9.7,1.9,19.8,2.3,29.4,5.1c9.8,2.9,20.1,2.4,29.9,4.9c2.5,0.6,4.9-0.3,7.1-1.6c1.5-0.9,2.9-2.4,5-1.8c-4.4,9.1-8.9,18.2-13.2,27.3
		c-17.6,37.4-29.8,76.6-36.5,117.3c-8.1,48.6-8.4,97.4-0.6,146.2c3.8,24.2,9.5,47.9,17,71.2c0.2,0.6,0.2,1.3,0.3,1.9
		c-9.8-4.4-20.7-4.1-30.9-6.7c-23.1-6-47-7.4-70.1-13.3c-2.3-0.6-4.6-0.6-6.9-0.8c-4.8-0.4-6,1-4.8,5.8c1.1,4.4,2.3,8.7,3.7,13
		C25.8,1003.3,27,1005.7,25,1008.1z"/>
	<path class="st0" d="M513,1368c-8.1-1.9-16.5-1.9-24.7-2.7c-76.4-7.3-148.5-29-216-65.6c-59.5-32.3-111.3-74.1-155-125.9
		c-12.4-14.8-24.3-30-34.4-46.5c-0.9-4.7,0.4-6.1,5.6-5.4c10.2,1.4,20.4,2.9,30.6,4.7c19.5,3.4,38.8,7.4,58.4,10.3
		c7.5,1.1,15.1,2.5,22.6,4c5.5,1.1,9.9,3.6,13.2,8c8.8,9.9,17.5,20.1,26.5,29.8c33.4,35.8,71.5,65.9,113.6,90.7
		c45.5,26.9,94.1,46.4,145.4,58.8c53.8,13,108.4,17.7,163.7,14.2c25.5-1.6,50.7-4.5,75.7-9.9c1.6-0.3,3.3-0.5,5.7-0.8
		c-3.6,3.4-7.6,3.9-11.2,5.1c-48.3,16.5-98,26.4-148.9,30c-2.3,0.2-4.7-0.3-6.8,1.2C555.7,1368,534.3,1368,513,1368z"/>
	<path class="st0" d="M786,1c0.5,1,1.5,1.3,2.5,1.5C795.6,4,800,8.8,803.2,15c5.9,11.2,8.9,23.3,10.4,35.8
		c6.5,53.5-1.5,104.9-22.6,154.3c-10.2,23.8-28.5,40.7-48.8,55.6c-17.6,13-37.5,21.4-58.3,27.8c-0.6,0.2-1.3,0.1-2,0.2
		c-0.1-1.8,1.1-2.5,2-3.3c37.3-32.3,61.6-72.5,74-120.2c5.8-22.3,11-44.6,10.1-67.9c-0.2-4.7-0.9-9.3-2.2-13.8
		c-4.9-17.2-17-24.3-34.7-21c-16.9,3.1-31.8,10.7-46,19.9c-29.2,18.9-54.4,42.3-74.5,70.8c-15.8,22.5-26.7,47.5-36.1,73.3
		c-1.7,4.7-3.7,9.2-5.7,13.8c-0.5,1.1-1.1,2.3-2.4,2.3c-1.6,0-2-1.6-2.4-2.8c-1.4-4.2-1.6-8.5-1.7-12.8c-1-36.1,7.7-70,23.7-102.1
		c13.5-26.9,33.7-48.2,56.9-66.8c30-24,63.2-41.9,100.2-52.5c6.2-1.8,12.8-1.8,18.8-4.6C770,1,778,1,786,1z"/>
	<path class="st0" d="M1357.7,1016.3c13.1-17.3,25.9-34.3,38.8-51.3c6.9-9.2,13.9-18.3,20.8-27.5c1.1-1.4,2-2.5,3.9-2.5
		c24.1,0,48.3,0,72.9,0c-0.9,3.2-3.1,5.1-4.7,7.3c-20.7,27.6-41.4,55.1-62.2,82.6c-2.1,2.8-2,4.6-0.2,7.3
		c23.8,36.7,47.6,73.5,71.3,110.3c0.6,0.9,2,1.6,1.4,3s-2,0.8-3.1,0.8c-21.2,0-42.3-0.1-63.5,0.1c-3.4,0-4.6-1.9-6.1-4.2
		c-22.2-33.8-44.4-67.6-66.6-101.4c-0.9-1.3-1.3-3-3.1-3.7c-1.3,1.3-0.6,2.9-0.6,4.3c0,33.3-0.1,66.7,0.1,100c0,4-1.1,5-5,5
		c-17.8-0.2-35.7-0.2-53.5,0c-3.5,0-4.4-1-4.4-4.5c0.1-106.7,0.1-213.3,0-320c0-3.6,1.3-4,4.3-4c18.2,0.1,36.3,0.1,54.5,0
		c3.3,0,4.1,0.9,4.1,4.2c-0.1,63-0.1,126-0.1,189C1356.6,1012.6,1356,1014.3,1357.7,1016.3z"/>
	<path class="st0" d="M954.5,1036.7c-1.7,0.9-1.1,2-1.1,3c0,33.8,0,67.7,0.1,101.5c0,3.8-0.7,5.1-4.8,5.1c-17.8-0.2-35.7-0.2-53.5,0
		c-3.4,0-4.5-0.8-4.5-4.4c0.1-106.7,0.1-213.3,0-320c0-2.9,0.5-4.1,3.8-4c18.5,0.1,37,0.2,55.5,0c3.5,0,3.6,1.4,3.6,4.2
		c-0.1,63.8-0.1,127.7-0.1,191.5c0,0.8,0,1.5,1.1,2.8c4-5.3,8.1-10.6,12.1-15.9c15.7-20.7,31.4-41.4,47-62.2
		c1.7-2.2,3.3-3.2,6.2-3.2c22.5,0.1,45,0.1,67.5,0.1c1.1,0,2.6-0.6,3.3,0.5c0.9,1.5-0.9,2.3-1.6,3.3c-21.7,28.9-43.4,57.8-65.3,86.6
		c-1.9,2.5-1.6,4.2-0.1,6.5c23.9,36.9,47.7,73.8,71.6,110.7c0.6,0.9,2,1.6,1.4,3c-0.6,1.3-2.1,0.7-3.2,0.7
		c-21.2,0-42.3-0.1-63.5,0.1c-3.7,0-4.9-2.4-6.3-4.7c-19.9-30.3-39.8-60.7-59.7-91C960.7,1045.9,957.5,1041.3,954.5,1036.7z"/>
	<path class="st0" d="M1242.8,944.5c-20-13.7-42.8-17.9-66.6-16.3c-37.5,2.5-67.6,18.4-87,51.2c-19.7,33.3-21.2,69-7.4,104.7
		c9.4,24.4,25.4,44,49.3,56c21.8,11,45.2,13.1,69.1,10.3c17.8-2.1,34.1-8.6,48.4-19.6c29.8-23,43.6-53.6,43.6-86.1
		C1292.4,999.5,1276.3,967.4,1242.8,944.5z M1191.6,1091c-18.8,3.8-33.5-3.7-44.7-18.7c-16.1-21.8-14.3-52.5,3.8-70.6
		c21-21,50.5-18.8,68.3,5.1c7.4,10,11,21.1,11.1,33.5C1230.2,1064.5,1213.8,1086.5,1191.6,1091z"/>
	<path class="st0" d="M1693.5,1015.9c-6.3-32.2-23.5-56.9-51.5-73.8c-23.1-14-48.5-16.5-74.7-12.5c-32.4,4.9-57.6,21.2-74.6,49
		c-18,29.5-20.6,61.7-11.6,94.4c7.7,27.9,23.8,50.5,49.4,65.1c23.1,13.1,48.2,15.4,74,12.2c15-1.8,29.1-7,41.7-15.5
		c33.5-22.8,49-55,49.3-94.6C1695.3,1031.8,1695.1,1023.8,1693.5,1015.9z M1610.1,1084.8c-18.6,12.6-43.6,8.4-58.1-9.8
		c-8.5-10.7-12.8-22.8-12.6-35.2c-0.2-25.9,15-46.2,38.3-51.3c17.6-3.9,31.5,3.1,42.9,16.3C1641.3,1028.7,1636.3,1067,1610.1,1084.8
		z"/>
	<path class="st0" d="M596.3,824.2c-2.9,3.5-5.7,7.1-7.9,11.2c-8.7,16.9-6.4,38.1,5.9,52.6c0.7,0.8,2.3,1.3,1.5,2.7
		c-0.7,1.1-2.1,0.6-3.2,0.6c-19.3,0-38.7,0.1-58-0.1c-4.1,0-5.3,1-5.3,5.2c0.1,81.3,0.1,162.7,0.2,244c0,4.6-1.1,5.8-5.7,5.8
		c-19.8-0.3-39.7-0.2-59.5,0c-3.7,0-4.7-1-4.7-4.8c0.1-81.5,0.1-163,0.2-244.5c0-4.6-1.2-5.8-5.8-5.7c-21,0.3-42,0-63,0.2
		c-3.7,0-5.2-0.6-5.1-4.8c0.2-19.7,0.2-39.3,0-59c0-3.5,0.9-4.5,4.4-4.5c67.3,0.1,134.7,0.1,202,0.1
		C593.5,823.3,595,822.7,596.3,824.2z"/>
	<path class="st0" d="M896.6,472.6c6.9,2,14.3-0.2,21.7,1.3c6.8,1.4,14,0.9,21,2.3c14,2.9,28.1,5.5,41.4,10.6
		c10.1,3.8,19.9,8.2,29.5,13.4c8,4.3,15.4,9.3,22.9,14.3c4.7,3.1,9,7.1,13.4,10.7c9.4,7.7,17.7,16.5,25.9,25.3
		c6.3,6.7,12.3,14,17.5,21.8c3.5,5.3,6.7,10.8,11,15.7s7,11.2,10.2,17c2.3,4.1,4,8.4,7.4,11.8c1,1,1.4,2.9,1.7,4.6
		c0.7,3.4,0.3,7.3,4.7,9c1.9,0.7,1.4,3.3,1.9,4.8c3.6,11.7,10.3,22.4,11.4,34.7c0.7,7.1,4.1,13.3,4.2,20.9c0,6.1-0.2,12.5,0.5,18.8
		c1.1,9.2-7.7,20.5-17,23.4c-0.8,0.2-1.6,0.7-2,1.3c-3,4.6-7.9,4.9-12.5,5.9c-3.6,0.8-6.7,2.9-10.6,3.3c-4.8,0.6-9.8,1.5-14.6,2.4
		c-19.9,3.7-40,1.5-60,1.6c-7.6,0-15.3-1.2-22.9-2.1c-9.9-1.3-19.7-3.7-29.6-4.6c-2.8-0.2-5.3-2.5-7.9-2.9c-9.6-1.5-18.5-5.1-27.7-8
		c-8.8-2.8-17.1-6.7-25.5-10.4c-8-3.5-15-8.5-21.2-13.8c-6.6-5.6-14-10.7-19.2-18.2s-12-13.8-17.1-21.5c-4-6.1-7.1-12.7-10.8-18.8
		c-6-9.8-10.1-20.2-14.3-30.7c-1.6-4.1-1.4-8.7-3.9-12.6c-0.5-0.7-0.3-2.1,0.8-2.6c1.2-0.6,2.4-0.2,3.3,0.6c2.5,2.3,5.3,4.3,7.1,7
		c5.4,7.9,13.1,13.4,20,19.5c6.1,5.5,12.6,10.7,19.8,15.2c6.6,4.2,12.8,9.4,19.7,13.1c11.8,6.3,23,13.4,36.4,16.5
		c5.8,1.3,11.4,4.8,17.5,6.1c6.9,1.5,13.4,4.5,20.7,5.1c3.9,0.3,7.9,2.8,12.2,3.3c8.6,1,17,3.9,25.7,4.1c3.6,0.1,7.1-0.3,10.4,1.7
		c1,0.6,2.2,0.1,3.3-0.4c3-1.5,6-1.5,9,0.1c0.8,0.4,2.1,0.9,2.8,0.6c6.4-2.6,13.4-2.3,20-4.6c5.6-2,9.4-4.8,13.1-9
		c2.7-3,3.8-6.1,4.4-10.1c1.1-7.4,0.7-14.7-1.8-21.3c-2.5-6.4-2.7-13.4-7.5-19.3c-3.3-4.1-5.1-9.8-7.8-14.7
		c-3-5.6-6.3-10.8-10.7-15.5c-4.1-4.4-6.5-10.1-10.5-14.7c-6.5-7.5-12.1-15.8-20.4-21.7c-1.9-1.4-3.2-3.7-4.8-5.7
		c-7.9-10-18.6-17-28.4-24.5c-9.7-7.5-20.8-13.4-31.8-19.2c-7.3-3.9-14.7-7.2-22.2-10.6c-10.2-4.5-20.8-7.8-31.2-11.9
		c-6.3-2.5-13.2-3.7-19.1-7.5c-3.7-2.4-3.5-3.1,0.3-5.7C882.6,473.7,889.6,473.8,896.6,472.6z"/>
	<path class="st0" d="M743.9,959.8c7.1-6.7,13.6-12.3,20.8-17c18.6-12,38.5-17.9,60.7-13.4c19.1,3.9,32.2,15.9,42.1,31.9
		c9.2,14.8,13.6,31.2,13.8,48.4c0.4,44.2,0.2,88.3,0.4,132.5c0,3.1-0.9,4-3.9,4c-18.8-0.1-37.7-0.2-56.5,0c-4.1,0-4-2-4-4.9
		c0.1-37.2,0-74.3,0.1-111.5c0-11.1-1.9-21.4-8.2-30.8c-12.9-19.3-37.5-20.3-51.9-2.2c-9.6,12-13.2,26.1-13.3,41
		c-0.2,34.3-0.2,68.6,0,103c0,4.5-1.2,5.5-5.5,5.4c-17.7-0.3-35.3-0.2-53,0c-3.8,0-4.7-1-4.7-4.8c0.1-67.3,0.1-134.6,0-201.9
		c0-3.3,0.6-4.7,4.3-4.6c18.2,0.2,36.3,0.2,54.5,0c3.6,0,4.5,1.1,4.4,4.5C743.7,945.8,743.9,952.2,743.9,959.8z"/>
	<path class="st0" d="M527.6,569.5c1.8,0.8,2.1,2.4,2.7,3.7c18.7,38.1,46.8,67.2,83.5,88.2c17.2,9.9,34.7,19,54.2,23.6
		c6.9,1.6,14,2.1,20.7-0.1c9.9-3.3,14.4-11.3,15.5-21.3c1.8-15.7-1.1-30.9-6-45.7c-11.4-34.2-28.2-65.3-54-91.1
		c-13.4-13.4-28.4-24.6-43.6-35.7c-2.3-1.7-4.5-3.5-6.7-5.2c-1-0.8-2.4-1.7-1.7-3.2c0.6-1.4,2.2-1.3,3.6-1.2
		c8.6,0.4,16.7,2.8,24.7,5.7c24.7,9,46.8,22.3,66.2,40c14.9,13.7,26.2,30.1,35.2,48.1c18.8,37.6,28.8,77.2,26.8,119.5
		c-0.4,9.1-2.2,18.1-6,26.6c-3.4,7.6-9.5,11.1-17.4,12.4c-13.9,2.3-27.6,0.9-41.1-1.8c-37.2-7.4-70.9-23-102.1-44.5
		c-20.6-14.1-34-33.4-43.4-56c-7.7-18.7-11.1-38.3-12-58.4C526.7,571.9,526.4,570.7,527.6,569.5z"/>
	<path class="st0" d="M213.3,1148.9c-7.8-7.4-18-7.1-27.6-8.9c-14.6-2.7-29.5-4.2-43.9-7.5c-14.9-3.3-29.9-5.1-44.8-8
		c-3.1-0.6-6.2-1-9.3-1.5c-3.3-0.5-5.1,0.7-4.8,4.3c-8.5-11.3-15.3-23.6-22.2-35.9c-11.7-21.2-21.7-43.1-30.2-65.7
		c-0.4-1.1-0.8-2.2-0.6-3.3c-1.6-4.8-2.8-9.6-4.9-14.2l0,0c-0.2-6.9-3.4-13.1-5-19.6c-1.6-6.6-0.2-8.5,6.4-7.6
		c19,2.6,37.7,6.7,56.5,10c14.8,2.5,29.4,5.6,44.2,8c3.2,0.5,4.7,2.7,7,4.2l0,0c1.6,5,2.6,10.3,5.2,15c8.7,21.2,17.7,42.3,28.8,62.4
		c12.4,22.3,26.3,43.5,42,63.6C211.2,1145.5,212.2,1147.3,213.3,1148.9z"/>
	<path class="st0" d="M968.9,258.1c1.8,12-1.8,25-5.6,37.4c-3.3,10.6-6.8,21.4-11.8,31.6c-4.2,8.6-8.4,17.2-13.2,25.3
		c-4.5,7.6-9.4,15.2-15.3,21.8c-6.1,6.9-11.6,14.4-19.5,19.7c-12.7,8.6-26.1,15-40.9,19.2c-11.7,3.3-23.5,4.8-35.4,5.9
		c-3,0.3-6.5-0.5-9.7-0.7c-0.7,0-1.4-0.2-1.5-1c-0.2-1.3,0.9-1.6,1.7-2c6.2-3.1,12.5-6.2,18.7-9.3c10.5-5.1,19.2-12.8,27.9-20.2
		c8.2-7,15.8-14.6,22.3-23.2c5.7-7.5,10.6-15.6,15.9-23.5c7.8-11.7,13.9-24.4,18.5-37.4c3.4-9.8,5.6-20.8-0.8-30.9
		c-3-4.8-7.9-6.4-13-7.6c-8.3-2-16.6,0.1-24.9,0c-3.4,0-6.6,1.3-9.4,2.4c-6.1,2.3-12.6,3.5-18.7,6c-9.9,4-20.3,6.9-29.5,12.4
		c-12.4,7.3-25.1,14.5-35.5,24.5c-13.3,12.6-26.2,25.7-36.1,41.3c-1.9,2.9-5,4.8-6.5,8.1c-0.6,1.3-2.2,1.6-3.5,1.1
		c-1.7-0.7-2.3-2.1-2.5-3.9c-0.6-5.2,2.2-9.6,3.5-14.3c3.4-12.7,9.3-24.3,16.1-35.6c6.2-10.5,13.9-19.7,21.9-28.8
		c11.4-12.9,25.6-21.9,40.5-29.8c5.5-2.9,10.9-6.3,16.8-8.2c11.1-3.7,21.9-8.3,33.6-10.3c10.3-1.8,20.3-4.7,30.6-6.2
		c8.3-1.2,16.8-1.4,25.2-0.6c8.8,0.9,17.3,3.2,25.8,5.9c9.7,3.1,14.2,8.7,14.6,18.8C969,249.3,968.9,253,968.9,258.1z"/>
	<path class="st0" d="M167,639c-7.5,8-16.2,3.5-24.7,2.7c-16.5-1.4-32.2-6.9-48.8-8.1c-8.2-0.6-16.6-2.6-24.6-5.5
		c-3.3-1.2-3.4-4.2-5-6.4c10.8-20.1,23.6-38.9,37.3-57c19.2-25.3,40.6-48.6,64-70c0.8-0.8,1.9-1.3,2.8-2c0.9,2-0.7,3.1-1.6,4.3
		c-1,1.3-2.3,2.4-3.4,3.6c-3.7,4.4-3.3,5.1,2.1,6.5c21.9,5.5,44.5,7.4,66.6,11.8c4.7,0.9,9.4,2,14.2,2.8c5,0.9,9.2-0.1,12.4-4.2
		c1.3-1.7,2.9-3.2,4.6-4.5c1.3-1,2.6-2.3,4.4-0.9c-8.9,8.9-17.9,17.7-26.6,26.8c-22.9,23.9-42.9,50.2-60.4,78.3
		c-0.6,1-1.3,1.9-2,2.8c-1.5,2.1-3,4.4-4.1,6.8c-0.7,1.1-1.3,2.1-2,3.2c-1.6,2.1-2.3,4.8-4,6.9C167.7,637.6,167.3,638.3,167,639z"/>
	<path class="st0" d="M598.5,1040c0-33.5,0.1-66.9-0.1-100.4c0-3.9,1.2-4.7,4.8-4.7c18,0.2,36,0.2,54,0c3.9,0,4.6,1.2,4.6,4.8
		c-0.1,67.3-0.1,134.6,0,201.8c0,3.8-1.1,4.7-4.8,4.7c-18-0.2-36-0.2-54,0c-3.9,0-4.7-1.2-4.6-4.8
		C598.5,1107.6,598.5,1073.8,598.5,1040z"/>
	<path class="st0" d="M267.2,512.1c-3.6,0.3-5.5,3.3-7.2,5.7c-4.5,6.3-10.4,6.6-17,5.1c-19.6-4.6-39.6-7.2-59.5-10.4
		c-7.8-1.3-15.3-4.4-23.3-4.5c-2.2,0-2.3-1.3-1.6-3.1c1.2-3.1,3.3-5.3,5.6-7.6c1.4-1.4,3.2-2.5,3.8-4.5c13.3-12.8,27.9-24.1,42.7-35
		c31.3-23,64.9-42.2,100.3-58.1c1.6-0.7,3.1-1.9,5.1-1.7c-0.1,3.3-3.4,3.2-5.1,4.7c-1,0.9-2.5,1.6-2.2,3.1c0.3,1.6,1.9,1.7,3.2,1.8
		c10.9,1.2,21.5,4.3,32.5,5.5c12.2,1.3,24.1,4.9,36.2,7c5.3,0.9,10.6,1.1,15.9,1.4c4.3,0.3,8.4-2.7,12.6-4.3
		c3.3-1.3,6.6-2.3,9.9-3.5c1.4-0.5,2.9-0.9,4.2,0.5c-12.7,6.2-25.8,11.4-38.4,17.8c-41.4,20.9-79.5,46.5-114,77.5
		C269.6,510.4,268.3,511.2,267.2,512.1z"/>
	<path class="st0" d="M423.1,414.1c-3.7-0.3-6.8,1.7-9.8,3.1c-4.5,2-9.7,2.1-13.5,5.6c-0.9,0.8-1.7,0.6-2.8,0.5
		c-10.3-1.4-20.6-2.4-30.8-4.4c-18.2-3.7-36.6-6.5-54.9-9.7c-1-0.2-1.9-0.5-2.9-0.7c-3.2-0.6-3.1-1.6-1.3-4.2
		c2.3-3.2,6.5-3.3,8.9-6.1c2.2-1,4.5-2,6.7-3.1c3.5-1.2,7-2.4,10.3-4c1.4-1.1,2.8-2,4.6-2.1c11.4-4.1,23.1-7.5,34.4-12h-0.1
		c8.1-2.2,16.2-4,24.1-7l0,0c13.4-3,26.8-6.3,40.3-8.7c23.7-4.3,47.4-7.3,71.5-8.8c20.8-1.3,41.6-1,62.4-0.6
		c17.4,0.3,34.7,2.2,52,4.5c19.1,2.5,37.9,6.3,56.7,10.3c4.8,1,9.5,2.7,14.4,3.4c17.4,4.1,34.4,9.8,50.9,16.9
		c-7.9-1.5-15.7-3.1-23.6-4.4c-40.6-6.7-81.4-9.1-122.5-6.7c-28.3,1.6-56.3,5.2-84.1,11.1c-0.6,0.1-1.3,0-2,0
		c-8.7,1.7-17.5,3.2-25.9,6.4h0.1c-14.7,3.1-28.7,8.3-42.8,13c-2.5,0.8-5.2,1.1-7.2,3l0,0C431.4,410,427.4,412.4,423.1,414.1
		L423.1,414.1z"/>
	<path class="st0" d="M674.2,855c0,19.3-15.2,34.9-34.3,35c-19.7,0.1-35.7-15.5-35.6-34.8c0.1-19.3,15.8-35.1,34.9-35.2
		C658.5,820,674.2,835.7,674.2,855z"/>
	<path class="st0" d="M693.2,369.9c-3.8,0.6-7.2-1-10.7-1.9c-21.2-5-42.7-9.2-64.3-11.8c-13.4-1.6-27-2.8-40.5-3.5
		c-19-1.1-37.9-0.9-56.8-0.5c-14.3,0.3-28.7,1.9-43,3.5c-26.3,2.9-52.3,7.9-78,14.2c-1.3,0.3-2.6,0.1-4,0.1
		c16.3-5.3,33.2-8.3,50-11.2c58.7-10.1,117.5-10.8,176.5-3.2c23.3,3,46.3,7.5,69,13.5C692,369.3,692.6,369.7,693.2,369.9z"/>
	<path class="st0" d="M436,409.1c0.3-1,1-1.7,2.1-2c14.7-4.7,29.1-10.1,44-13.9c1.2-0.3,2.6-0.1,4-0.1
		C469.4,398.4,452.7,403.7,436,409.1z"/>
	<path class="st0" d="M372,376.9c-1.1,2-3.3,2-5.1,2.7c-8,2.8-15.9,5.6-23.9,8.3c-1.7,0.6-3.4,1.5-5.3,1
		C348.7,383.9,360.2,380,372,376.9z"/>
	<path class="st0" d="M486,393.1c4.4-3.4,10-3.8,15.1-4.9c3.5-0.7,7-3,10.8-1.5C503.4,389.4,494.7,391.2,486,393.1z"/>
	<path class="st0" d="M396,369.9c-1.3,3.3-4.6,2.1-6.9,2.8c-5.6,1.7-11.1,4.2-17.2,4.2C379.7,373.8,387.8,371.7,396,369.9z"/>
	<path class="st0" d="M139.2,1017.9c-3.6-4.3-4.4-9.6-5.2-15C136.4,1007.7,137.8,1012.8,139.2,1017.9z"/>
	<path class="st0" d="M423,414.1c3.9-2.7,8-5.2,13-5.1C431.9,411.2,427.7,413.2,423,414.1z"/>
	<path class="st0" d="M333,390.9c-3,2.4-6.4,3.8-10.3,4C326,393.2,329.2,391.2,333,390.9z"/>
	<path class="st0" d="M168,637c0.7-2.7,1.5-5.3,4-6.9C171.3,632.7,170.3,635.2,168,637z"/>
	<path class="st0" d="M174,626.8c0.1-3,1.7-5.1,4.1-6.8C177.3,622.7,176,624.9,174,626.8z"/>
	<path class="st0" d="M24.9,1008c3,4.3,4.3,9.1,4.9,14.2C27.5,1017.8,25.9,1013,24.9,1008z"/>
</g>
</svg>
