<?xml version="1.0" encoding="utf-8"?>
<!-- Generator: Adobe Illustrator 23.0.5, SVG Export Plug-In . SVG Version: 6.00 Build 0)  -->
<svg version="1.1" id="Layer_1" xmlns="http://www.w3.org/2000/svg" xmlns:xlink="http://www.w3.org/1999/xlink" x="0px" y="0px"
	 viewBox="0 0 450 450" style="enable-background:new 0 0 450 450;" xml:space="preserve">
<style type="text/css">
	.st0{fill:#4D4D4D;}
	.st1{fill:#FFFFFF;}
	.st2{fill:#25C9E6;}
	.st3{opacity:0.5;fill:#07BFE8;}
	.st4{opacity:0.3;fill:#FFFFFF;}
	.st5{fill:#FFF1DB;}
	.st6{clip-path:url(#SVGID_2_);}
	.st7{fill:#FFB294;}
	.st8{fill:#0B66A3;}
	.st9{fill:#227FBC;}
	.st10{fill:#F54251;}
	.st11{fill:#CF3837;}
	.st12{opacity:0.5;fill:#FFB294;}
	.st13{fill:#4D1B0B;}
	.st14{fill:#722811;}
	.st15{fill:#333333;}
	.st16{fill:#808080;}
	.st17{fill:#FF364A;}
	.st18{fill:#B0763C;}
	.st19{fill:#FBBD80;}
	.st20{fill:#E49E59;}
	.st21{fill:#C78544;}
	.st22{fill:#FBAE62;}
	.st23{fill:#B61C1C;}
	.st24{fill:#A9D8E8;}
	.st25{fill:#86A634;}
	.st26{fill:#E5FFA1;}
	.st27{fill:#C9E876;}
	.st28{fill:#9ABD3A;}
	.st29{fill:#EFFFC7;}
	.st30{fill:#DEFF82;}
	.st31{fill:#29ABE2;}
	.st32{fill:#F0911D;}
	.st33{fill:#006FA6;}
	.st34{fill:#FFBB52;}
	.st35{fill:#04A9DB;}
	.st36{fill:#FFCF85;}
	.st37{fill:#99CF51;}
	.st38{enable-background:new    ;}
	.st39{fill:#534741;}
	.st40{fill:#CCCCCC;}
	.st41{fill:#C42939;}
</style>
<g>
	<g>
		<path d="M229.6,63.22v227.91c0,6.26,4.4,13.87,9.82,17l93.11,53.76l2.91,8.43l8.73-5.04c1.78-1.03,2.88-3.23,2.88-6.36V115.8
			c0-6.26-4.4-13.87-9.82-17l-97.8-56.47c-2.65-1.53-5.05-1.7-6.81-0.75c0-0.01-8.73,5.03-8.73,5.03L229.6,63.22z"/>
		<g>
			<path class="st0" d="M328.84,369.43l-97.8-56.47c-5.42-3.13-9.82-10.74-9.82-17V52.83c0-6.26,4.4-8.8,9.82-5.67l97.8,56.47
				c5.42,3.13,9.82,10.74,9.82,17v243.14C338.66,370.03,334.27,372.56,328.84,369.43z"/>
			<path class="st1" d="M225.41,55.24v227.52c0,3.6,2.52,7.98,5.64,9.78l97.8,56.45c1.82,1.06,3.45,1,4.47,0.02
				c0.74-0.65,1.17-1.78,1.17-3.27V118.22c0-3.6-2.54-7.96-5.64-9.76l-97.8-56.47c-1-0.59-1.95-0.82-2.75-0.74
				C226.56,51.36,225.41,52.81,225.41,55.24z"/>
			<path class="st2" d="M334.48,118.22v227.52c0,1.5-0.42,2.63-1.16,3.29c-0.82,0.08-1.77-0.17-2.76-0.74l-97.79-56.48
				c-2.06-1.18-3.86-3.5-4.85-5.96c-0.51-1.26-0.8-2.57-0.8-3.79V54.54c0-1.5,0.42-2.63,1.16-3.29c0.82-0.08,1.77,0.15,2.76,0.74
				l97.81,56.48C331.95,110.26,334.48,114.62,334.48,118.22z"/>
			<path class="st3" d="M334.48,224.33v121.41c0,1.5-0.42,2.63-1.16,3.29c-0.82,0.08-1.77-0.17-2.76-0.74l-97.79-56.48
				c-2.06-1.18-3.86-3.5-4.85-5.96L334.48,224.33z"/>
			<polygon class="st4" points="264.14,73.6 294.05,90.87 332.32,168.97 332.32,209.69 			"/>
			<polygon class="st4" points="332.32,266.87 332.32,290.39 229.29,89.57 229.29,66.59 			"/>
			<path class="st4" d="M332.32,299.73v46.01c0,0.38-0.04,0.69-0.1,0.94c-0.18-0.07-0.37-0.17-0.57-0.29l-25.69-14.83l-76.67-157.69
				V97.12L332.32,299.73z"/>
			<path class="st5" d="M291.8,342.59l-23.71-13.69c-2.49-1.44-4.52-4.96-4.52-7.83c0-2.87,2.04-4.05,4.52-2.61l23.71,13.69
				c2.49,1.44,4.52,4.96,4.52,7.83C296.32,342.85,294.29,344.02,291.8,342.59z"/>
		</g>
	</g>
	<g>
		<g>
			<path class="st5" d="M245.1,71.02c2.86,1.65,4.95,3.55,6.45,5.19l-1.29,4.56c-1.01-1.14-2.8-3-5.27-4.43
				c-2.48-1.43-3.68-0.82-3.69,0.68c-0.01,1.85,1.42,3.5,4.67,6.8c4.46,4.48,6.55,8.35,6.54,12.44c-0.01,4.87-3.29,7.13-10.23,3.12
				c-2.89-1.67-5.73-4.18-7.16-5.91l1.18-4.76c1.54,1.79,3.9,4.06,6.33,5.46c2.63,1.52,4.02,1.08,4.03-0.82
				c0.01-1.81-1.2-3.54-4.23-6.54c-4.2-4.11-6.93-8.35-6.91-12.58C235.54,69.3,239.14,67.58,245.1,71.02z"/>
		</g>
		<g>
			<polygon class="st5" points="277.28,90.07 277.19,119.11 271.5,115.83 271.54,103.67 262.12,98.24 262.09,110.39 256.35,107.08 
				256.44,78.04 262.17,81.35 262.14,92.51 271.55,97.94 271.58,86.78 			"/>
		</g>
		<g>
			<path class="st5" d="M293.41,98.91c7.76,4.48,11.98,13.61,11.96,21.62c-0.03,9.53-5.07,12.39-12.46,8.12
				c-7.5-4.33-11.87-13.37-11.84-21.64C281.09,98.31,285.95,94.6,293.41,98.91z M293.23,123.61c3.86,2.23,6.09-0.71,6.1-6.35
				c0.02-5.22-2.15-10.95-6.09-13.23c-3.85-2.23-6.12,0.7-6.14,6.33C287.09,116.06,289.4,121.4,293.23,123.61z"/>
		</g>
		<g>
			<path class="st5" d="M324.6,119.51c1.62,2.39,2.69,5.44,2.68,8.28c-0.01,2.84-0.84,4.78-2.35,5.54
				c-1.95,0.99-4.84,0.28-8.22-1.67c-0.75-0.43-1.42-0.87-1.95-1.26l-0.03,10.39l-5.66-3.27l0.08-28.66
				c1.77,0.67,4.24,1.85,7.73,3.87C320.41,114.76,322.92,116.99,324.6,119.51z M316.69,126.59c3.04,1.76,4.92,1.07,4.93-1.9
				c0.01-2.67-1.6-5.19-4.44-6.83c-1.16-0.67-1.95-1-2.37-1.12l-0.02,8.58C315.27,125.73,315.87,126.12,316.69,126.59z"/>
		</g>
	</g>
	<g>
		<defs>
			<path id="SVGID_1_" d="M297.02,140.84l-94.48-10.26l-93.59,131.56l-5.99,123.32l43.86,54.52l84.09-26.15l54.41-91.66l45.24,26.13
				c0.99,0.57,1.94,0.82,2.76,0.74c0.74-0.65,1.16-1.79,1.16-3.29v-61.8L297.02,140.84z"/>
		</defs>
		<clipPath id="SVGID_2_">
			<use xlink:href="#SVGID_1_"  style="overflow:visible;"/>
		</clipPath>
		<g class="st6">
			<polygon class="st7" points="244.75,255.96 247.46,257.56 251.88,253.46 			"/>
			<g>
				<path class="st7" d="M312.58,306.23c0.14,0.11,0.27,0.22,0.41,0.32c4.07,2.02,6.87,4.58,5.76,8.8l-7.58,3.49l-5.31,8.19
					l-8.19,3.64c-2.17-2.15-3.93-4.32-1.21-6.83c3.92-3.37,6.11-6.93,6.38-10.7C307.21,312.36,311.22,310.43,312.58,306.23z"/>
				<path class="st8" d="M254.9,237.99l30.35,0.27c-4.44,10.66,1.97,15.69,5.29,35.98c18.03,8.05,14.84,24.26,22.04,31.99
					c-1.28,7.37-8.1,10.92-13.27,8.7c0.3-4.24-5.61-21.16-31.35-36.22C259.51,267.53,254.6,251.99,254.9,237.99z"/>
				<path class="st8" d="M314.21,307.19c5.07,0.9,6.78,4.21,7.27,8.37c-0.83,4.7-5.98,5.03-9.18,7.74c-7.36,6.22-6.98,9.63-11.22,11
					c-5.17,1.66-12.85-0.19-13.5-2.5c-0.53-1.9,0.88-4.05,5.91-6.52l6.59-5.26c-0.84,1.19-2.15,2.49-3.63,3.82
					c-1.63,2.61-0.05,3.84,3.03,4.78c2.92-0.07,5.48-2.52,8.42-6.37l6.52-7.89C316.01,311.9,316.17,309.51,314.21,307.19z"/>
				<path class="st7" d="M237.95,354.48c3.03,0.62,6.29,0.49,9.51-0.2c-0.07,0.19-0.16,0.38-0.23,0.57c1.6,2.25,1.5,5.49,1.14,9.02
					c0,0-7.43,9.1-7.58,9.56c-0.15,0.45-10.31,2.43-10.31,2.43l-3.19-6.29C232.21,365.85,235.47,361.03,237.95,354.48z"/>
				<path class="st8" d="M247.24,354.85c3.56,2.31,3.41,6.98,2.65,10.47c-1.67,2.81-4.07,4.53-6.83,8.65l-2.6,2.71
					c-5.18,3.45-14.46,3.89-17.73,2.07c-2.12-2.96,0.41-5.87,6.78-11.04c-2.43,3.96,0.35,5.89,6.64,5.35c2.99-0.45,5-3.64,8.26-7.96
					C247.42,360.55,249.42,357.88,247.24,354.85z"/>
				<path class="st9" d="M237.21,356.33c0.14-0.36,1.03-2.56,1.16-2.93c6.24-18.29,10.31-38.9,14.26-51.04
					c2.87-17.66,6.86-33.27,13.04-44.82c-6.88-4.4-10.64-12.54-11.45-19.57l36.48-0.76c2.32,7.61,2.54,15.1,0,22.45
					c-7.58,27.3-18.33,28.41-24.24,47.52c3,18.53-4.74,30.16-11.57,48.3C252.22,357.64,240.84,359.41,237.21,356.33z"/>
				<path class="st10" d="M240.64,200.83c7.28-11.07,12.6-24.72,17.14-25.86l0.61,19.03l-13.35,17.82c-1.1,2.34-3.66,5.16-6.87,8.45
					l-5.81-8.6C235.28,207.32,238.06,203.56,240.64,200.83z"/>
				<path class="st10" d="M254.88,217.68l-1.66,17.93c3.47,21.14,33.06,15.12,39.28,2.38c-1.37-6.15-6.22-8.71-3.79-14.82
					c3.35-8.41,5.61-15.17,5.61-15.17c0.75-2.16,1.42-4.12,1.93-5.92c1.87-6.54,1.71-11.01-3.75-15.72
					c-10.49-7.72-21.27-12.65-32.61-12.13c-4.64-1.34-6.67,8.04-5.38,14.95c1.16,6.21-7.38,12.68-7.67,17.04
					C246.17,216.65,254.88,217.68,254.88,217.68z"/>
				<path class="st7" d="M279.95,166.96l-0.48,10.86l-2.93,9.41c-3.4,5.41-17.49,23.84-17.49,23.84s-0.34-16.47,4.38-27.03l0.71-3.8
					l1.76-7.26L279.95,166.96z"/>
				<path class="st11" d="M253.23,235.61c3.47,21.14,33.06,15.12,39.28,2.38c-1.37-6.15-6.22-8.71-3.79-14.82
					c3.35-8.41,5.61-15.17,5.61-15.17c0.75-2.16,1.42-4.12,1.93-5.92c-0.55-3.17-1.24-5.92-1.93-5.21
					c-12.74,13.23-13.8,29.35-26.66,27.77c-7.14-0.88-8.46-9.15-8.46-9.15c-1.84,1.6-2.6,2.36-4.33,2.18L253.23,235.61z"/>
				<path class="st1" d="M279.46,177.82l2.37,2.82c1.39,1.94,3.23,4.86,2.33,9.06l-4.75-0.46l3.46,5.89
					c-8.74,2.09-17.84,8.63-24.4,17.3C264.91,196.39,275.48,191.57,279.46,177.82z"/>
				<path class="st1" d="M267.97,177.29c-4.47,5.19-8.5,20.4-8.93,33.78c-1.75-10.11-3.21-20.13-2.52-26.27l4.22-1.13l-3.18-1.32
					c1.73-2.76,3.82-5.13,6.7-6.61L267.97,177.29z"/>
				<path class="st12" d="M277.79,171.07c0.06,0.16-1.3,14.89-9.26,14.88c-4.99-0.01-4.62-11.04-4.62-11.04L277.79,171.07z"/>
				<path class="st7" d="M263.65,179.26c3.47,1.94,9.07-1.43,11.63-3.22c0.87-0.61,1.58-1.42,2.08-2.36l2.36-4.45l3.03,0.51
					c0,0,5.56-2.38,5.66-12.91c0.05-5.27-6.13-11.1-11.66-11.62c-8.71-0.82-12.38,4.24-15.01,7.61c-2.63,3.36-1.96,10.81-1.96,10.81
					S258.99,176.66,263.65,179.26z"/>
				<path class="st13" d="M274.19,151.97c-0.74,5.25,2.92,10.11,8.17,10.86c5.25,0.74,10.11-2.92,10.86-8.17
					c0.74-5.25-2.92-10.11-8.17-10.86C279.8,143.05,274.94,146.71,274.19,151.97z"/>
				<path class="st14" d="M277.76,167.97c0,0-11.15-4.57-14.67-13.46c0,0-3.92,4.22-3.37,10.88c-3.75-3.24-6.2-15.5,5.41-19.66
					c11.34-4.07,24.19,0.79,23.31,13.29c-0.65,9.16-5.9,13.58-9,16.55C279.44,175.56,280.58,169.93,277.76,167.97z"/>
				<path class="st13" d="M263.09,154.51l-0.72-3.73c-4.46,1.65-5,9.79-2.65,14.61C259.59,161.75,260.39,156.23,263.09,154.51z"/>
			</g>
			<g>
				<g>
					<g>
						<g>
							<g>
								<path class="st15" d="M173.74,366.85c0,2.4,1.68,3.37,3.76,2.17c2.08-1.2,3.76-4.12,3.76-6.52c0-2.4-1.69-3.37-3.76-2.17
									C175.43,361.53,173.74,364.45,173.74,366.85z"/>
							</g>
							<g>
								<path class="st15" d="M173.86,370.99c-1.33-0.77-2.09-2.28-2.09-4.14c0-3.13,2.04-6.66,4.75-8.22
									c1.62-0.93,3.3-1.03,4.63-0.26c1.33,0.77,2.09,2.28,2.09,4.14c0,3.13-2.04,6.66-4.75,8.23c-0.89,0.52-1.81,0.78-2.67,0.78
									C175.12,371.51,174.45,371.34,173.86,370.99z M178.49,362.04c-1.48,0.85-2.78,3.1-2.78,4.81c0,0.48,0.11,0.71,0.08,0.71
									c0.06,0.01,0.31-0.01,0.73-0.25c1.48-0.85,2.78-3.1,2.78-4.81c0-0.48-0.11-0.71-0.11-0.72
									C179.09,361.79,178.85,361.83,178.49,362.04z"/>
							</g>
						</g>
						<g>
							<path class="st16" d="M177.3,367.6l1.21-0.7c0.87-0.5,1.41-1.44,1.41-2.45l0-10.35l-7.49,6.72l2.62,6.04
								C175.44,367.73,176.48,368.08,177.3,367.6z"/>
						</g>
						<g>
							<path class="st15" d="M176.21,365.27c0,0.83,0.58,1.16,1.29,0.75c0.72-0.41,1.3-1.42,1.3-2.24c0-0.83-0.58-1.16-1.3-0.75
								C176.79,363.44,176.21,364.44,176.21,365.27z"/>
						</g>
					</g>
					<g>
						<g>
							<path class="st15" d="M133.97,403.99c0,2.4,1.68,3.37,3.76,2.17c2.08-1.2,3.76-4.12,3.76-6.52c0-2.4-1.68-3.37-3.76-2.17
								C135.65,398.67,133.97,401.59,133.97,403.99z"/>
						</g>
						<g>
							<path class="st15" d="M134.09,408.13c-1.33-0.77-2.09-2.28-2.09-4.14c0-3.13,2.04-6.66,4.75-8.22
								c1.62-0.93,3.3-1.03,4.63-0.26c1.33,0.77,2.09,2.28,2.09,4.14c0,3.13-2.04,6.66-4.75,8.23c-0.89,0.52-1.81,0.78-2.67,0.78
								C135.35,408.64,134.68,408.47,134.09,408.13z M138.72,399.18c-1.48,0.85-2.78,3.1-2.78,4.81c0,0.48,0.11,0.71,0.08,0.71
								c0.06,0.01,0.31-0.01,0.73-0.25c1.48-0.85,2.78-3.1,2.78-4.81c0-0.48-0.11-0.71-0.11-0.72
								C139.32,398.93,139.08,398.97,138.72,399.18z"/>
						</g>
					</g>
					<g>
						<path class="st16" d="M137.53,404.74l1.21-0.7c0.88-0.5,1.41-1.44,1.41-2.45v-10.35l-8.32,4.8l3.45,7.96
							C135.67,404.87,136.71,405.21,137.53,404.74z"/>
					</g>
					<g>
						<path class="st15" d="M136.44,402.4c0,0.83,0.58,1.16,1.3,0.75c0.72-0.41,1.3-1.42,1.3-2.24c0-0.83-0.58-1.16-1.3-0.75
							C137.02,400.57,136.44,401.58,136.44,402.4z"/>
					</g>
					<g>
						<path class="st16" d="M152.88,412.6c0.18,0,0.37-0.03,0.54-0.1l79.66-31.36c0.76-0.3,1.13-1.16,0.83-1.92
							c-0.3-0.76-1.16-1.13-1.92-0.83l-79,31.1l-19.61-11.32l50.95-46.13c0.61-0.55,0.65-1.48,0.1-2.09
							c-0.55-0.61-1.48-0.65-2.09-0.1l-52.45,47.49c-0.35,0.32-0.53,0.78-0.48,1.25c0.05,0.47,0.32,0.89,0.73,1.12l21.98,12.69
							C152.37,412.54,152.62,412.6,152.88,412.6z"/>
					</g>
					<g>
						<g>
							<g>
								<path class="st16" d="M230.97,347.3c0.17,0,0.34-0.09,0.43-0.25c0.14-0.24,0.06-0.54-0.18-0.67l-48.21-27.83
									c-0.23-0.14-0.54-0.06-0.67,0.18c-0.14,0.24-0.06,0.54,0.18,0.67l48.21,27.83C230.8,347.28,230.89,347.3,230.97,347.3z"/>
								<path class="st16" d="M232.47,336.21c0.17,0,0.34-0.09,0.43-0.25c0.14-0.24,0.06-0.54-0.18-0.67l-48.21-27.83
									c-0.23-0.14-0.54-0.06-0.67,0.18c-0.14,0.24-0.06,0.54,0.18,0.67l48.21,27.83C232.3,336.18,232.38,336.21,232.47,336.21z"/>
								<path class="st16" d="M233.96,325.11c0.17,0,0.34-0.09,0.43-0.25c0.14-0.24,0.06-0.54-0.18-0.67L186,296.36
									c-0.23-0.14-0.54-0.06-0.67,0.18c-0.14,0.24-0.06,0.54,0.18,0.67l48.21,27.83C233.79,325.09,233.88,325.11,233.96,325.11z"
									/>
								<path class="st16" d="M235.46,314.02c0.17,0,0.34-0.09,0.43-0.25c0.14-0.24,0.06-0.54-0.18-0.67l-48.21-27.83
									c-0.23-0.14-0.54-0.06-0.67,0.18c-0.14,0.24-0.06,0.54,0.18,0.67l48.21,27.83C235.29,314,235.38,314.02,235.46,314.02z"/>
								<path class="st16" d="M236.95,302.93c0.17,0,0.34-0.09,0.43-0.25c0.14-0.24,0.06-0.54-0.18-0.67l-48.21-27.83
									c-0.23-0.14-0.54-0.06-0.67,0.18c-0.14,0.24-0.06,0.54,0.18,0.67l48.21,27.83C236.79,302.91,236.87,302.93,236.95,302.93z"
									/>
								<path class="st16" d="M238.45,291.84c0.17,0,0.34-0.09,0.43-0.25c0.14-0.24,0.06-0.54-0.18-0.67l-48.21-27.83
									c-0.23-0.14-0.54-0.06-0.67,0.18c-0.14,0.24-0.06,0.54,0.18,0.67l48.21,27.83C238.28,291.82,238.37,291.84,238.45,291.84z"
									/>
							</g>
						</g>
						<g>
							<g>
								<path class="st16" d="M230.97,347.3c0.24,0,0.45-0.18,0.49-0.43l7.48-55.46c0.04-0.27-0.15-0.52-0.42-0.55
									c-0.28-0.05-0.52,0.15-0.55,0.42l-7.48,55.46c-0.04,0.27,0.15,0.52,0.42,0.55C230.93,347.3,230.95,347.3,230.97,347.3z"/>
								<path class="st16" d="M222.94,342.66c0.24,0,0.45-0.18,0.49-0.43l7.48-55.46c0.04-0.27-0.15-0.51-0.42-0.55
									c-0.28-0.04-0.52,0.15-0.55,0.42l-7.48,55.46c-0.04,0.27,0.15,0.51,0.42,0.55C222.9,342.66,222.92,342.66,222.94,342.66z"/>
								<path class="st16" d="M214.9,338.02c0.24,0,0.45-0.18,0.49-0.43l7.48-55.46c0.04-0.27-0.15-0.51-0.42-0.55
									c-0.28-0.04-0.52,0.15-0.55,0.42l-7.48,55.46c-0.04,0.27,0.15,0.51,0.42,0.55C214.86,338.02,214.88,338.02,214.9,338.02z"/>
								<path class="st16" d="M206.87,333.38c0.24,0,0.45-0.18,0.49-0.43l7.48-55.46c0.04-0.27-0.15-0.52-0.42-0.55
									c-0.27-0.04-0.52,0.15-0.55,0.42l-7.48,55.46c-0.04,0.27,0.15,0.51,0.42,0.55C206.83,333.38,206.85,333.38,206.87,333.38z"
									/>
								<path class="st16" d="M198.84,328.74c0.24,0,0.45-0.18,0.49-0.43l7.48-55.46c0.04-0.27-0.15-0.52-0.42-0.55
									c-0.27-0.04-0.52,0.15-0.55,0.42l-7.48,55.46c-0.04,0.27,0.15,0.51,0.42,0.55C198.79,328.74,198.81,328.74,198.84,328.74z"
									/>
								<path class="st16" d="M190.8,324.1c0.24,0,0.45-0.18,0.49-0.43l7.48-55.46c0.04-0.27-0.15-0.52-0.42-0.55
									c-0.27-0.04-0.52,0.15-0.55,0.42l-7.48,55.46c-0.04,0.27,0.15,0.51,0.42,0.55C190.76,324.1,190.78,324.1,190.8,324.1z"/>
								<path class="st16" d="M182.77,319.46c0.24,0,0.45-0.18,0.49-0.43l7.48-55.46c0.04-0.27-0.15-0.52-0.42-0.55
									c-0.27-0.04-0.52,0.15-0.55,0.42l-7.48,55.46c-0.04,0.27,0.15,0.52,0.42,0.55C182.72,319.46,182.74,319.46,182.77,319.46z"
									/>
							</g>
						</g>
						<g>
							<path class="st10" d="M238.45,292.82c0.51,0,1.01-0.26,1.28-0.74c0.41-0.71,0.17-1.61-0.54-2.02l-48.21-27.83
								c-0.71-0.41-1.61-0.17-2.02,0.54c-0.41,0.71-0.17,1.61,0.54,2.02l48.21,27.83C237.94,292.76,238.2,292.82,238.45,292.82z"/>
						</g>
					</g>
					<g>
						<g>
							<path class="st16" d="M115.38,362.31c0.09,0,0.18-0.03,0.26-0.08l67.38-42.85c0.23-0.15,0.3-0.45,0.15-0.68
								c-0.15-0.23-0.45-0.3-0.68-0.15l-67.38,42.85c-0.23,0.15-0.3,0.45-0.15,0.68C115.06,362.23,115.22,362.31,115.38,362.31z"/>
							<path class="st16" d="M115.26,355.82c0.1,0,0.19-0.03,0.28-0.09l69-47.45c0.22-0.15,0.28-0.46,0.13-0.68
								c-0.15-0.22-0.46-0.28-0.68-0.13l-69,47.45c-0.22,0.15-0.28,0.46-0.13,0.68C114.95,355.74,115.1,355.82,115.26,355.82z"/>
							<path class="st16" d="M115.13,349.32c0.1,0,0.2-0.03,0.29-0.09l70.63-52.04c0.22-0.16,0.27-0.47,0.11-0.69
								c-0.16-0.22-0.47-0.27-0.69-0.11l-70.63,52.04c-0.22,0.16-0.27,0.47-0.11,0.69C114.83,349.25,114.98,349.32,115.13,349.32z"
								/>
							<path class="st16" d="M115,342.83c0.11,0,0.21-0.03,0.3-0.1l72.25-56.64c0.21-0.17,0.25-0.47,0.09-0.69
								c-0.17-0.21-0.48-0.25-0.69-0.09l-72.25,56.64c-0.22,0.17-0.25,0.47-0.09,0.69C114.71,342.76,114.86,342.83,115,342.83z"/>
							<path class="st16" d="M114.88,336.33c0.11,0,0.22-0.04,0.31-0.11l73.87-61.24c0.21-0.17,0.24-0.48,0.07-0.69
								c-0.17-0.21-0.48-0.24-0.69-0.07l-73.87,61.24c-0.21,0.17-0.24,0.48-0.07,0.69C114.59,336.27,114.74,336.33,114.88,336.33z"
								/>
							<path class="st16" d="M114.75,329.84c0.12,0,0.23-0.04,0.32-0.12l75.49-65.83c0.2-0.18,0.23-0.49,0.05-0.7
								c-0.18-0.21-0.49-0.23-0.7-0.05l-75.49,65.83c-0.2,0.18-0.23,0.49-0.05,0.7C114.48,329.78,114.61,329.84,114.75,329.84z"/>
						</g>
						<g>
							<path class="st16" d="M115.38,362.31c0.28-0.01,0.5-0.23,0.49-0.5l-0.32-16.24l-0.32-16.24c-0.01-0.27-0.22-0.48-0.49-0.48
								c-0.28,0.01-0.5,0.23-0.49,0.5l0.32,16.24l0.32,16.24C114.9,362.1,115.12,362.31,115.38,362.31z"/>
							<path class="st16" d="M123.14,321.54c-0.27,0-0.49,0.22-0.49,0.49l-0.13,17.51l-0.13,17.46c0,0.1,0.03,0.24,0.08,0.31
								c0.08,0.14,0.22,0.23,0.4,0.24c0.31-0.02,0.5-0.24,0.5-0.49l0.13-17.52l0.13-17.46c0-0.1-0.03-0.24-0.08-0.31
								c-0.08-0.14-0.22-0.23-0.4-0.24C123.14,321.54,123.14,321.54,123.14,321.54z"/>
							<path class="st16" d="M131.53,314.22c-0.27-0.01-0.5,0.21-0.5,0.48l-0.58,18.79l-0.57,18.68c0,0.08,0.01,0.27,0.06,0.33
								c0.06,0.15,0.21,0.27,0.4,0.28c0.31-0.02,0.51-0.23,0.51-0.48l0.58-18.79l0.57-18.68c0-0.08-0.01-0.27-0.06-0.33
								c-0.06-0.15-0.21-0.27-0.4-0.28C131.54,314.22,131.54,314.22,131.53,314.22z"/>
							<path class="st16" d="M139.93,306.91c-0.27-0.01-0.5,0.2-0.51,0.48l-1.03,20.07l-1.01,19.9c0,0.07,0,0.3,0.04,0.36
								c0.05,0.17,0.2,0.3,0.4,0.32c0.31-0.02,0.51-0.22,0.52-0.47l1.03-20.07l1.01-19.9c0-0.07,0-0.3-0.04-0.36
								c-0.05-0.17-0.2-0.3-0.4-0.32C139.94,306.91,139.93,306.91,139.93,306.91z"/>
							<path class="st16" d="M148.33,299.59c-0.27-0.02-0.5,0.2-0.51,0.47l-1.49,21.35l-1.46,21.12c0,0.06-0.01,0.34,0.02,0.38
								c0.03,0.18,0.19,0.34,0.4,0.35c0.31-0.01,0.52-0.21,0.53-0.47l1.49-21.35l1.46-21.12c0-0.06,0.01-0.34-0.02-0.38
								c-0.03-0.18-0.19-0.33-0.4-0.36C148.34,299.6,148.33,299.6,148.33,299.59z"/>
							<path class="st16" d="M156.72,292.28c-0.27-0.02-0.5,0.19-0.52,0.46l-1.94,22.62l-1.9,22.35c0,0.05-0.02,0.37,0.01,0.4
								c0.02,0.2,0.18,0.37,0.4,0.39c0.32-0.01,0.52-0.2,0.54-0.46l1.94-22.62l1.9-22.35c0-0.05,0.02-0.37-0.01-0.4
								c-0.02-0.2-0.18-0.37-0.4-0.39C156.73,292.28,156.73,292.28,156.72,292.28z"/>
							<path class="st16" d="M165.12,284.97c-0.27-0.03-0.51,0.18-0.53,0.45l-2.39,23.9l-2.34,23.57c0,0.04-0.03,0.4-0.01,0.43
								c0.01,0.22,0.17,0.4,0.4,0.43c0.32,0,0.52-0.2,0.54-0.45l2.39-23.9l2.34-23.57c0-0.04,0.03-0.4,0.01-0.43
								c-0.01-0.22-0.17-0.4-0.4-0.43C165.13,284.97,165.12,284.97,165.12,284.97z"/>
							<path class="st16" d="M173.52,277.65c-0.27-0.03-0.51,0.17-0.54,0.44l-2.84,25.18l-2.78,24.79c0,0.02-0.04,0.43-0.03,0.45
								c-0.01,0.23,0.16,0.44,0.4,0.47c0.32,0,0.53-0.19,0.55-0.44l2.84-25.18l2.79-24.79c0-0.02,0.04-0.43,0.03-0.45
								c0.01-0.23-0.16-0.44-0.4-0.47C173.53,277.65,173.52,277.65,173.52,277.65z"/>
							<path class="st16" d="M181.91,270.34c-0.27-0.03-0.51,0.16-0.55,0.43l-3.29,26.45l-3.23,26.01c0,0.01-0.06,0.47-0.05,0.47
								c-0.02,0.25,0.16,0.47,0.4,0.51c0.32,0,0.53-0.18,0.56-0.43l3.29-26.45l3.23-26.01c0-0.01,0.06-0.47,0.05-0.47
								c0.02-0.25-0.16-0.47-0.4-0.51C181.92,270.34,181.92,270.34,181.91,270.34z"/>
							<path class="st16" d="M182.77,319.46c0.24,0,0.45-0.18,0.49-0.43l3.74-27.73l3.74-27.73c0.04-0.27-0.15-0.52-0.42-0.55
								c-0.27-0.04-0.52,0.15-0.55,0.42l-3.74,27.73l-3.74,27.73c-0.04,0.27,0.15,0.52,0.42,0.55
								C182.72,319.46,182.74,319.46,182.77,319.46z"/>
						</g>
						<g>
							<g>
								<path class="st16" d="M114.69,363.12c-0.47-0.25-0.77-0.74-0.78-1.27l-0.63-32.48c-0.01-0.44,0.18-0.86,0.51-1.14
									l75.49-65.83c0.46-0.41,1.13-0.48,1.67-0.19c0.54,0.29,0.85,0.89,0.76,1.5l-7.48,55.46c-0.06,0.43-0.3,0.82-0.67,1.05
									l-67.38,42.85c-0.24,0.15-0.52,0.23-0.79,0.23C115.14,363.3,114.9,363.24,114.69,363.12z M188.25,267.21l-72.01,62.8
									l0.57,29.16l64.58-41.07L188.25,267.21z"/>
							</g>
							<g>
								<path class="st16" d="M130.9,399.91c0.35,0,0.71-0.13,0.99-0.38l52.45-47.49c0.32-0.29,0.49-0.7,0.49-1.12l-0.58-31.97
									c-0.01-0.82-0.7-1.43-1.5-1.45c-0.82,0.02-1.47,0.69-1.45,1.5l0.57,31.3l-51.95,47.04c-0.6,0.55-0.65,1.48-0.1,2.09
									C130.09,399.75,130.49,399.91,130.9,399.91z"/>
							</g>
							<g>
								<path class="st16" d="M166.16,367.98c0.92-0.06,1.53-0.76,1.48-1.58l-2.39-35.11c-0.06-0.81-0.75-1.45-1.58-1.37
									c-0.81,0.05-1.43,0.76-1.37,1.57l2.39,35.11C164.74,367.38,165.39,367.98,166.16,367.98z"/>
							</g>
							<g>
								<path class="st16" d="M187.82,283.01c0.73,0,1.36-0.54,1.46-1.28l2.39-17.74l6.51-11.68l13.57-13.44
									c0.58-0.57,0.58-1.51,0.01-2.09c-0.57-0.58-1.51-0.58-2.09-0.01l-13.72,13.59c-0.1,0.1-0.18,0.21-0.25,0.33l-6.74,12.11
									c-0.09,0.16-0.15,0.34-0.17,0.52l-2.43,18.02c-0.11,0.81,0.46,1.55,1.27,1.66C187.68,283.01,187.75,283.01,187.82,283.01z"
									/>
							</g>
						</g>
					</g>
					<g>
						<g>
							<path class="st16" d="M153.44,384.28c0.07,0,0.14-0.02,0.21-0.05l77.54-36.99c0.25-0.12,0.35-0.41,0.23-0.66
								c-0.12-0.25-0.41-0.35-0.66-0.23l-77.54,36.99c-0.25,0.12-0.35,0.41-0.23,0.66C153.08,384.18,153.25,384.28,153.44,384.28z"
								/>
							<path class="st16" d="M145.83,379.89c0.07,0,0.15-0.02,0.22-0.05l75.51-38.16c0.24-0.12,0.34-0.42,0.22-0.66
								c-0.12-0.24-0.42-0.34-0.66-0.22l-75.5,38.16c-0.24,0.12-0.34,0.42-0.22,0.66C145.47,379.79,145.65,379.89,145.83,379.89z"/>
							<path class="st16" d="M138.22,375.5c0.08,0,0.16-0.02,0.23-0.06l73.47-39.33c0.24-0.13,0.33-0.43,0.2-0.67
								c-0.13-0.24-0.43-0.33-0.67-0.2l-73.47,39.33c-0.24,0.13-0.33,0.43-0.2,0.67C137.87,375.4,138.04,375.5,138.22,375.5z"/>
							<path class="st16" d="M130.61,371.1c0.08,0,0.17-0.02,0.24-0.07l71.44-40.5c0.24-0.13,0.32-0.43,0.18-0.67
								c-0.13-0.24-0.43-0.32-0.67-0.18l-71.44,40.5c-0.24,0.13-0.32,0.43-0.18,0.67C130.27,371.01,130.43,371.1,130.61,371.1z"/>
							<path class="st16" d="M123,366.71c0.09,0,0.17-0.02,0.25-0.07l69.41-41.68c0.23-0.14,0.31-0.44,0.17-0.68
								c-0.14-0.23-0.44-0.31-0.68-0.17l-69.41,41.68c-0.23,0.14-0.31,0.44-0.17,0.68C122.67,366.62,122.83,366.71,123,366.71z"/>
							<path class="st16" d="M115.38,362.31c0.09,0,0.18-0.03,0.26-0.08l67.38-42.85c0.23-0.15,0.3-0.45,0.15-0.68
								c-0.15-0.23-0.45-0.3-0.68-0.15l-67.38,42.85c-0.23,0.15-0.3,0.45-0.15,0.68C115.06,362.23,115.22,362.31,115.38,362.31z"/>
						</g>
						<g>
							<path class="st16" d="M153.44,384.28c0.17,0,0.34-0.09,0.43-0.25c0.14-0.24,0.06-0.54-0.18-0.67l-38.05-21.97
								c-0.23-0.14-0.54-0.06-0.67,0.18c-0.14,0.24-0.06,0.54,0.18,0.67l38.05,21.97C153.27,384.26,153.35,384.28,153.44,384.28z"/>
							<path class="st16" d="M162.05,380.17c0.17,0,0.34-0.09,0.43-0.25c0.14-0.24,0.06-0.54-0.18-0.67l-39.18-22.62
								c-0.23-0.14-0.54-0.06-0.67,0.18c-0.14,0.24-0.06,0.54,0.18,0.67l39.18,22.62C161.88,380.15,161.97,380.17,162.05,380.17z"/>
							<path class="st16" d="M170.67,376.06c0.17,0,0.34-0.09,0.43-0.25c0.14-0.24,0.06-0.54-0.18-0.67l-40.31-23.27
								c-0.23-0.14-0.54-0.06-0.67,0.18c-0.14,0.24-0.06,0.54,0.18,0.67L170.42,376C170.5,376.04,170.58,376.06,170.67,376.06z"/>
							<path class="st16" d="M179.28,371.95c0.17,0,0.34-0.09,0.43-0.25c0.14-0.24,0.06-0.54-0.18-0.67l-41.44-23.92
								c-0.23-0.14-0.54-0.06-0.67,0.18c-0.14,0.24-0.06,0.54,0.18,0.67l41.44,23.92C179.11,371.93,179.2,371.95,179.28,371.95z"/>
							<path class="st16" d="M187.9,367.85c0.17,0,0.34-0.09,0.43-0.25c0.14-0.24,0.06-0.54-0.18-0.67l-42.57-24.58
								c-0.23-0.14-0.54-0.06-0.67,0.18c-0.14,0.24-0.06,0.54,0.18,0.67l42.57,24.58C187.73,367.82,187.81,367.85,187.9,367.85z"/>
							<path class="st16" d="M196.51,363.74c0.17,0,0.34-0.09,0.43-0.25c0.14-0.24,0.06-0.54-0.18-0.67l-43.69-25.23
								c-0.23-0.14-0.54-0.06-0.67,0.18c-0.14,0.24-0.06,0.54,0.18,0.67l43.69,25.23C196.34,363.71,196.43,363.74,196.51,363.74z"/>
							<path class="st16" d="M205.13,359.63c0.17,0,0.34-0.09,0.43-0.25c0.14-0.24,0.05-0.54-0.18-0.67l-44.82-25.88
								c-0.23-0.14-0.54-0.06-0.67,0.18c-0.14,0.24-0.06,0.54,0.18,0.67l44.82,25.88C204.96,359.6,205.04,359.63,205.13,359.63z"/>
							<path class="st16" d="M213.74,355.52c0.17,0,0.34-0.09,0.43-0.25c0.14-0.24,0.06-0.54-0.18-0.67l-45.95-26.53
								c-0.23-0.14-0.54-0.06-0.67,0.18c-0.14,0.24-0.06,0.54,0.18,0.67l45.95,26.53C213.57,355.5,213.66,355.52,213.74,355.52z"/>
							<path class="st16" d="M222.36,351.41c0.17,0,0.34-0.09,0.43-0.25c0.14-0.24,0.06-0.54-0.18-0.67l-47.08-27.18
								c-0.23-0.14-0.54-0.06-0.67,0.18c-0.14,0.24-0.06,0.54,0.18,0.67l47.08,27.18C222.19,351.39,222.27,351.41,222.36,351.41z"/>
							<path class="st16" d="M230.97,347.3c0.17,0,0.34-0.09,0.43-0.25c0.14-0.24,0.06-0.54-0.18-0.67l-48.21-27.83
								c-0.23-0.14-0.54-0.06-0.67,0.18c-0.14,0.24-0.06,0.54,0.18,0.67l48.21,27.83C230.8,347.28,230.89,347.3,230.97,347.3z"/>
						</g>
						<g>
							<path class="st16" d="M152.7,385.07l-38.05-21.97c-0.45-0.26-0.73-0.73-0.74-1.25c-0.01-0.52,0.25-1,0.68-1.28l67.38-42.85
								c0.46-0.3,1.06-0.31,1.53-0.03l48.21,27.83c0.48,0.27,0.76,0.79,0.74,1.34c-0.02,0.55-0.35,1.04-0.84,1.28l-77.54,36.99
								c-0.2,0.1-0.42,0.14-0.64,0.14C153.18,385.27,152.93,385.2,152.7,385.07z M182.8,320.7l-64.57,41.06l35.27,20.36l74.3-35.44
								L182.8,320.7z"/>
						</g>
					</g>
					<g>
						<path class="st17" d="M257.53,267.32c0.85,0,1.68-0.44,2.14-1.23c0.68-1.18,0.28-2.68-0.9-3.36l-45.45-26.24
							c-1.18-0.68-2.68-0.28-3.36,0.9c-0.68,1.18-0.28,2.68,0.9,3.36l45.45,26.24C256.69,267.21,257.11,267.32,257.53,267.32z"/>
					</g>
					<g>
						<g>
							<path class="st15" d="M221.47,393.47c0,2.4,1.69,3.37,3.76,2.17c2.08-1.2,3.76-4.12,3.76-6.52s-1.69-3.37-3.76-2.17
								C223.16,388.15,221.47,391.07,221.47,393.47z"/>
						</g>
						<g>
							<path class="st15" d="M221.59,397.61c-1.33-0.77-2.09-2.28-2.09-4.14c0-3.13,2.04-6.66,4.75-8.23
								c1.62-0.93,3.3-1.03,4.63-0.26c1.33,0.77,2.09,2.28,2.09,4.14c0,3.13-2.04,6.66-4.75,8.23c-0.89,0.52-1.81,0.78-2.67,0.78
								C222.85,398.12,222.18,397.95,221.59,397.61z M226.22,388.66c-1.48,0.86-2.78,3.1-2.78,4.81c0,0.48,0.11,0.71,0.08,0.71
								c0.06,0.01,0.31-0.01,0.73-0.25c1.48-0.86,2.78-3.1,2.78-4.81c0-0.48-0.11-0.71-0.11-0.72
								C226.82,388.41,226.58,388.45,226.22,388.66z"/>
						</g>
					</g>
					<g>
						<path class="st16" d="M225.03,394.22l1.21-0.7c0.88-0.51,1.41-1.44,1.41-2.45v-10.35l-8.32,4.8l3.45,7.96
							C223.17,394.35,224.21,394.69,225.03,394.22z"/>
					</g>
					<g>
						<path class="st15" d="M223.94,391.88c0,0.83,0.58,1.16,1.3,0.75c0.72-0.41,1.3-1.42,1.3-2.24c0-0.83-0.58-1.16-1.3-0.75
							C224.52,390.05,223.94,391.06,223.94,391.88z"/>
					</g>
					<g>
						<g>
							<path class="st15" d="M157.44,418.51c0,2.4,1.68,3.37,3.76,2.17c2.08-1.2,3.76-4.12,3.76-6.52s-1.68-3.37-3.76-2.17
								C159.12,413.19,157.44,416.11,157.44,418.51z"/>
						</g>
						<g>
							<path class="st15" d="M157.56,422.65c-1.33-0.77-2.09-2.28-2.09-4.14c0-3.13,2.04-6.66,4.75-8.23
								c1.62-0.93,3.31-1.03,4.63-0.26c1.33,0.77,2.09,2.28,2.09,4.14c0,3.13-2.04,6.66-4.75,8.23c-0.89,0.52-1.81,0.78-2.67,0.78
								C158.81,423.17,158.15,422.99,157.56,422.65z M162.19,413.7c-1.48,0.85-2.78,3.1-2.78,4.81c0,0.48,0.11,0.71,0.08,0.71
								c0.06,0.01,0.31-0.01,0.73-0.25c1.48-0.85,2.78-3.1,2.78-4.81c0-0.48-0.11-0.71-0.11-0.72
								C162.79,413.45,162.55,413.49,162.19,413.7z"/>
						</g>
					</g>
					<g>
						<path class="st16" d="M161,419.26l1.21-0.7c0.87-0.51,1.41-1.44,1.41-2.45l0-10.35l-8.32,4.8l3.45,7.96
							C159.14,419.39,160.18,419.74,161,419.26z"/>
					</g>
					<g>
						<path class="st15" d="M159.91,416.93c0,0.83,0.58,1.16,1.29,0.75c0.72-0.41,1.3-1.42,1.3-2.24c0-0.83-0.58-1.16-1.3-0.75
							C160.49,415.1,159.91,416.1,159.91,416.93z"/>
					</g>
				</g>
				<g>
					<g>
						<polygon class="st18" points="165.27,353.53 190.3,339.08 190.3,321.92 165.27,336.37 						"/>
						<polygon class="st19" points="165.27,336.37 190.3,321.92 169.65,309.99 144.62,324.44 						"/>
						<polygon class="st20" points="144.62,341.61 165.27,353.53 165.27,336.37 144.62,324.44 						"/>
						<polygon class="st21" points="165.19,342.67 191.11,327.71 191.11,320.61 165.19,335.57 						"/>
						<polygon class="st19" points="165.19,335.57 191.11,320.61 169.72,308.26 143.81,323.22 						"/>
						<polygon class="st22" points="143.81,330.32 165.19,342.67 165.19,335.57 143.81,323.22 						"/>
					</g>
					<path class="st5" d="M162.12,327.38c-1.91,1.1-1.91,2.89,0,3.99c1.91,1.1,5,1.1,6.91,0c1.91-1.1,1.91-2.89,0-3.99
						C167.13,326.28,164.03,326.28,162.12,327.38z"/>
					<polygon class="st5" points="153.08,320.39 162.56,325.87 163.56,325.29 154.08,319.82 					"/>
					<polygon class="st5" points="151.12,321.58 160.6,327.05 161.6,326.48 152.12,321 					"/>
					<polygon class="st5" points="149.16,322.77 158.64,328.24 159.64,327.66 150.16,322.19 					"/>
				</g>
				<g>
					<g>
						<path class="st22" d="M158.52,273.51c0.47,0,0.84-0.38,0.84-0.84v-5.09c0-4.48,3.68-10.26,8.2-12.87
							c2.24-1.29,4.3-1.58,5.68-0.78c1.08,0.63,1.68,1.94,1.68,3.7v5.09c0,0.47,0.38,0.84,0.84,0.84c0.47,0,0.84-0.38,0.84-0.84
							v-5.09c0-2.39-0.9-4.22-2.52-5.16c-1.91-1.1-4.59-0.82-7.36,0.78c-4.99,2.88-9.04,9.31-9.04,14.33v5.09
							C157.68,273.13,158.06,273.51,158.52,273.51z"/>
						<polygon class="st23" points="145.5,325.44 183.49,303.51 186.62,255.07 148.63,277 						"/>
						<polygon class="st10" points="183.49,303.51 190.01,305.25 196.53,311.04 192.99,258.74 186.62,255.07 						"/>
						<polygon class="st11" points="155,280.68 155.47,287.7 155.71,291.2 158.54,332.97 196.53,311.04 193.69,269.07 
							193.46,265.64 192.99,258.74 						"/>
						<polygon class="st10" points="145.5,325.44 152.02,327.18 158.54,332.97 155.71,291.2 155.47,287.7 155,280.68 148.63,277 
							148.18,283.94 147.96,287.3 						"/>
						<path class="st22" d="M164.71,278.85c0.47,0,0.84-0.38,0.84-0.84v-5.09c0-4.49,3.68-10.26,8.2-12.87
							c2.24-1.29,4.3-1.58,5.68-0.78c1.08,0.63,1.68,1.94,1.68,3.7v5.09c0,0.47,0.38,0.84,0.84,0.84c0.47,0,0.84-0.38,0.84-0.84
							v-5.09c0-2.39-0.9-4.22-2.52-5.16c-1.91-1.1-4.59-0.82-7.36,0.78c-4.99,2.88-9.04,9.31-9.04,14.33V278
							C163.87,278.47,164.25,278.85,164.71,278.85z"/>
						<path class="st5" d="M167.19,300.53c0.51,5.08,4.79,6.82,9.55,3.89c4.76-2.93,8.21-9.43,7.7-14.51
							c-0.51-5.08-4.79-6.82-9.55-3.89C170.13,288.95,166.68,295.45,167.19,300.53z"/>
					</g>
					<polygon class="st5" points="155.47,287.7 155.71,291.2 193.69,269.07 193.46,265.64 155.55,287.73 					"/>
					<path class="st24" d="M147.96,287.3l7.67,3.95c0.07-0.04-0.17-3.55-0.17-3.55l-7.29-3.75L147.96,287.3z"/>
				</g>
				<g>
					<g>
						<polygon class="st25" points="201.4,358.99 223.03,346.5 223.03,322.59 201.4,335.08 						"/>
						<polygon class="st26" points="201.4,330.01 223.03,317.52 200.35,304.43 178.72,316.92 						"/>
						<polygon class="st27" points="178.72,345.89 201.4,358.99 201.4,335.08 178.72,321.98 						"/>
						<polygon class="st28" points="201.31,342 223.92,328.94 223.92,316.09 201.31,329.14 						"/>
						<polygon class="st29" points="201.31,329.14 223.92,316.09 200.44,302.53 177.83,315.58 						"/>
						<polygon class="st30" points="177.83,328.44 201.31,342 201.31,329.14 177.83,315.58 						"/>
					</g>
					<polygon class="st25" points="201.08,322.05 211.63,315.95 200.67,309.62 190.11,315.72 					"/>
				</g>
				<g>
					<polygon class="st9" points="146.06,364.95 126.9,353.88 126.9,328.69 146.06,339.75 					"/>
					<polygon class="st19" points="146.06,339.75 126.9,328.69 147.55,316.76 166.72,327.83 					"/>
					<polygon class="st31" points="166.72,353.03 146.06,364.95 146.06,339.75 166.72,327.83 					"/>
					<polygon class="st31" points="146.14,346.06 126.09,334.48 126.09,327.38 146.14,338.96 					"/>
					<polygon class="st9" points="146.14,338.96 126.09,327.38 147.47,315.03 167.53,326.61 					"/>
					<polygon class="st9" points="167.53,333.71 146.14,346.06 146.14,338.96 167.53,326.61 					"/>
				</g>
				<g>
					<polygon class="st18" points="151.28,335.69 134.11,325.78 134.11,314.01 151.28,323.92 					"/>
					<polygon class="st19" points="151.28,323.92 134.11,314.01 148.28,305.82 165.45,315.74 					"/>
					<polygon class="st20" points="165.45,327.51 151.28,335.69 151.28,323.92 165.45,315.74 					"/>
					<polygon class="st21" points="151.34,328.24 133.56,317.98 133.56,313.11 151.34,323.37 					"/>
					<polygon class="st19" points="151.34,323.37 133.56,313.11 148.23,304.64 166.01,314.9 					"/>
					<polygon class="st5" points="151,321.33 137.1,313.3 148.57,306.68 162.46,314.71 					"/>
					<polygon class="st19" points="144.66,308.13 146.2,307.24 162.32,316.55 160.79,317.44 					"/>
					<polygon class="st19" points="140.96,309.79 142.49,308.91 158.61,318.22 157.08,319.1 					"/>
					<polygon class="st19" points="137.25,311.46 138.78,310.57 154.9,319.88 153.37,320.77 					"/>
					<polygon class="st22" points="166.01,319.77 151.34,328.24 151.34,323.37 166.01,314.9 					"/>
				</g>
				<g>
					<path class="st22" d="M216.36,291.14c-0.37,0-0.67-0.3-0.67-0.67v-4.02c0-3.54-2.9-8.09-6.47-10.15
						c-1.76-1.02-3.4-1.24-4.48-0.62c-0.85,0.49-1.33,1.53-1.33,2.92v4.02c0,0.37-0.3,0.67-0.67,0.67c-0.37,0-0.67-0.3-0.67-0.67
						v-4.02c0-1.88,0.71-3.33,1.99-4.07c1.5-0.87,3.62-0.64,5.81,0.62c3.93,2.27,7.13,7.34,7.13,11.31v4.02
						C217.03,290.84,216.73,291.14,216.36,291.14z"/>
					<polygon class="st8" points="226.33,318.72 198.83,304.98 198.22,276.77 223.86,291.57 					"/>
					<polygon class="st31" points="198.83,304.98 193.68,306.36 188.54,310.92 191.33,280.74 198.22,276.77 					"/>
					<polygon class="st9" points="214.18,325.73 188.54,310.92 191.33,280.74 216.98,295.55 					"/>
					<polygon class="st5" points="192.36,285.12 191.93,289.77 213.46,318.06 213.93,313 					"/>
					<polygon class="st5" points="191.11,298.64 206.18,319.46 212.97,323.38 213.29,319.9 191.76,291.65 					"/>
					<polygon class="st31" points="226.33,318.72 220.57,320.45 214.18,325.73 216.98,295.55 223.86,291.57 					"/>
					<path class="st22" d="M211.48,295.35c-0.37,0-0.67-0.3-0.67-0.67v-4.02c0-3.54-2.9-8.09-6.47-10.15
						c-1.76-1.02-3.4-1.24-4.48-0.62c-0.85,0.49-1.33,1.53-1.33,2.92v4.02c0,0.37-0.3,0.67-0.67,0.67c-0.37,0-0.67-0.3-0.67-0.67
						v-4.02c0-1.88,0.71-3.33,1.99-4.07c1.5-0.87,3.62-0.64,5.81,0.62c3.93,2.27,7.13,7.34,7.13,11.31v4.02
						C212.14,295.06,211.85,295.35,211.48,295.35z"/>
				</g>
				<g>
					<g>
						<polygon class="st32" points="157.39,361.74 164.5,365.85 164.5,325.48 157.39,321.37 						"/>
						<polygon class="st1" points="163.69,330.06 163.69,342.51 158.27,337.88 158.27,325.43 						"/>
						<polygon class="st33" points="163.69,351.58 163.69,361.19 158.27,358.06 158.27,346.95 						"/>
						<polygon class="st17" points="163.69,345.04 163.69,348.73 158.27,344.1 158.27,340.42 						"/>
					</g>
					<g>
						<polygon class="st34" points="164.5,365.85 190.24,350.98 190.24,310.61 164.5,325.48 						"/>
						<polygon class="st1" points="165.25,331.29 189.47,324.01 189.47,336.45 165.25,343.74 						"/>
						<polygon class="st35" points="165.25,352.81 189.47,345.53 189.47,347.24 165.25,361.23 						"/>
						<polygon class="st17" points="165.25,346.28 189.47,338.99 189.47,342.67 165.25,349.96 						"/>
						<path class="st17" d="M180.79,333.57c0,2.23,1.57,3.14,3.5,2.02c1.93-1.12,3.5-3.83,3.5-6.06c0-2.23-1.57-3.14-3.5-2.02
							C182.36,328.62,180.79,331.33,180.79,333.57z"/>
					</g>
					<polygon class="st36" points="183.14,306.51 190.24,310.61 164.5,325.48 157.39,321.37 					"/>
				</g>
				<g>
					<path class="st37" d="M155.9,313.39c-0.02,1.39-0.62,2.51-1.63,3.44c-0.42,0.39-0.88,0.67-1.08,0.79
						c-1.68,1.03-3.77,1.36-5.74,1.33c-2.05-0.02-4.62-0.77-6.14-2.29c-0.48-0.47-0.88-1.06-1.16-1.75
						c-0.13-0.31-0.19-0.63-0.22-0.82c-0.04-0.2-0.05-0.46-0.05-0.66l-0.01-1.86c0-0.67,0-1.35-0.01-2.05
						c-0.02-6.06-0.01-3.51-0.02-6.66c0-0.64,0-1.27-0.01-1.86c0-0.8,0.13-1.56,0.4-2.3c0.43-1.22,1.24-2.3,2.27-3.1
						c-0.22-0.35-0.36-0.8-0.37-1.31l0-0.5c0-1.56-0.17-2.39,0.35-3.3c0.42-0.72,1.15-1.28,1.82-1.59c0.92-0.46,1.97-0.69,3-0.75
						c0.22-0.02,0.65-0.03,1.03,0c1.02,0.06,1.92,0.27,2.6,0.55c0.24,0.1,0.28,0.11,0.57,0.27c0.74,0.39,1.21,0.82,1.57,1.34
						c0.45,0.64,0.46,1.22,0.46,1.94c0,0.16,0.01,2.01,0.01,2.01c-0.01,0.46-0.12,0.88-0.36,1.31c1.54,1.18,2.64,3.03,2.7,5.39
						L155.9,313.39z"/>
					<g class="st38">
						<path class="st39" d="M153.19,317.62c2.21-1.36,2.69-3.05,2.71-4.23c0,1.17-0.75,2.34-2.27,3.25
							c-3.08,1.84-8.16,1.9-11.33,0.11c-1.61-0.9-2.42-2.11-2.43-3.32C140.11,318.98,148.85,320.29,153.19,317.62z"/>
					</g>
					<g class="st38">
						<path class="st39" d="M143.08,296.11v0.33c0,0.72,0.48,1.43,1.44,1.97c1.88,1.06,4.9,1.03,6.73-0.07
							c0.9-0.54,1.35-1.24,1.34-1.93v-0.33c-0.2,0.17-0.42,0.33-0.68,0.49c-0.42,0.25-0.89,0.46-1.4,0.61
							c-1.6,0.63-3.67,0.64-5.26,0.05c-0.51-0.15-0.97-0.34-1.39-0.57C143.56,296.49,143.31,296.31,143.08,296.11z"/>
					</g>
					<g class="st38">
						<path class="st39" d="M142.21,294.81c0.13,0.6,0.44,1.1,0.88,1.52c1.94,1.86,6.36,2.02,8.68,0.6c0.32-0.2,0.6-0.41,0.83-0.63
							c0.57-0.55,0.88-1.17,0.93-1.87c-0.05,0.58-0.35,1.15-0.93,1.66c-0.2,0.17-0.42,0.33-0.68,0.49c-0.42,0.25-0.89,0.46-1.4,0.61
							c-1.65,0.51-3.62,0.53-5.26,0.05c-0.51-0.15-0.97-0.34-1.39-0.57c-0.3-0.17-0.56-0.35-0.78-0.55
							C142.62,295.71,142.33,295.26,142.21,294.81z"/>
						<path class="st16" d="M142.14,294.3c0,0.15,0.02,0.29,0.05,0.44C142.16,294.6,142.15,294.45,142.14,294.3z"/>
					</g>
					<path class="st1" d="M151.26,289.09c-1.95-1.09-5.07-1.06-6.96,0.07c-1.9,1.13-1.85,2.94,0.1,4.03
						c1.95,1.09,5.07,1.06,6.96-0.07C153.25,291.99,153.21,290.18,151.26,289.09z"/>
					<path class="st1" d="M140.63,303.97c0.28,0.69,0.65,1.25,1.1,1.69c1.42,1.42,3.83,2.12,5.74,2.14c1.85,0.02,3.8-0.28,5.37-1.25
						c0.18-0.11,0.62-0.38,1.01-0.74c0.56-0.51,0.98-1.09,1.23-1.74v6.85c-0.26,0.65-0.68,1.22-1.23,1.73
						c-0.39,0.36-0.82,0.63-1.01,0.74c-1.57,0.96-3.52,1.27-5.37,1.25c-1.91-0.02-4.32-0.72-5.74-2.14
						c-0.45-0.44-0.83-0.99-1.08-1.63C140.63,310.81,140.63,303.97,140.63,303.97z"/>
				</g>
				<g>
					<g>
						<path class="st40" d="M153.44,384.28c0.28-0.01,0.5-0.23,0.49-0.5l-0.63-32.48c-0.01-0.27-0.22-0.48-0.49-0.48
							c-0.28,0.01-0.5,0.23-0.49,0.5l0.63,32.48C152.95,384.07,153.17,384.28,153.44,384.28z"/>
						<path class="st40" d="M147.09,380.62c0.28,0,0.5-0.23,0.49-0.5l-0.63-32.48c-0.01-0.27-0.22-0.48-0.49-0.48
							c-0.28,0-0.5,0.23-0.49,0.5l0.63,32.48C146.61,380.41,146.83,380.62,147.09,380.62z"/>
						<path class="st40" d="M140.75,376.96c0.28,0,0.5-0.23,0.49-0.5l-0.63-32.48c-0.01-0.27-0.22-0.48-0.49-0.48
							c-0.28,0-0.5,0.23-0.49,0.5l0.63,32.48C140.27,376.75,140.48,376.96,140.75,376.96z"/>
						<path class="st40" d="M134.41,373.3c0.28,0,0.5-0.23,0.49-0.5l-0.63-32.48c-0.01-0.27-0.22-0.48-0.49-0.48
							c-0.28,0-0.5,0.23-0.49,0.5l0.63,32.48C133.92,373.08,134.14,373.3,134.41,373.3z"/>
						<path class="st40" d="M128.07,369.64c0.28,0,0.5-0.23,0.49-0.5l-0.63-32.48c-0.01-0.27-0.22-0.48-0.49-0.48
							c-0.28,0-0.5,0.23-0.49,0.5l0.63,32.48C127.58,369.42,127.8,369.64,128.07,369.64z"/>
						<path class="st40" d="M121.73,365.98c0.28,0,0.5-0.23,0.49-0.5L121.59,333c-0.01-0.27-0.22-0.48-0.49-0.48
							c-0.28,0-0.5,0.23-0.49,0.5l0.63,32.48C121.24,365.76,121.46,365.98,121.73,365.98z"/>
						<path class="st40" d="M115.38,362.31c0.28-0.01,0.5-0.23,0.49-0.5l-0.63-32.48c-0.01-0.27-0.22-0.48-0.49-0.48
							c-0.28,0.01-0.5,0.23-0.49,0.5l0.63,32.48C114.9,362.1,115.12,362.31,115.38,362.31z"/>
					</g>
					<g>
						<path class="st40" d="M153.44,384.28c0.17,0,0.34-0.09,0.43-0.25c0.14-0.24,0.06-0.54-0.18-0.67l-38.05-21.97
							c-0.23-0.14-0.54-0.06-0.67,0.18c-0.14,0.24-0.06,0.54,0.18,0.67l38.05,21.97C153.27,384.26,153.35,384.28,153.44,384.28z"/>
						<path class="st40" d="M153.31,377.79c0.17,0,0.34-0.09,0.43-0.25c0.14-0.24,0.06-0.54-0.18-0.67L115.5,354.9
							c-0.23-0.14-0.54-0.06-0.67,0.18c-0.14,0.24-0.06,0.54,0.18,0.67l38.05,21.97C153.14,377.77,153.23,377.79,153.31,377.79z"/>
						<path class="st40" d="M153.18,371.29c0.17,0,0.34-0.09,0.43-0.25c0.14-0.24,0.06-0.54-0.18-0.67l-38.05-21.97
							c-0.23-0.14-0.54-0.06-0.67,0.18c-0.14,0.24-0.06,0.54,0.18,0.67l38.05,21.97C153.01,371.27,153.1,371.29,153.18,371.29z"/>
						<path class="st40" d="M153.06,364.8c0.17,0,0.34-0.09,0.43-0.25c0.14-0.24,0.06-0.54-0.18-0.67l-38.05-21.97
							c-0.23-0.14-0.54-0.06-0.67,0.18c-0.14,0.24-0.06,0.54,0.18,0.67l38.05,21.97C152.89,364.78,152.97,364.8,153.06,364.8z"/>
						<path class="st40" d="M152.93,358.3c0.17,0,0.34-0.09,0.43-0.25c0.14-0.24,0.06-0.54-0.18-0.67l-38.05-21.97
							c-0.23-0.14-0.54-0.06-0.67,0.18c-0.14,0.24-0.06,0.54,0.18,0.67l38.05,21.97C152.76,358.28,152.85,358.3,152.93,358.3z"/>
						<path class="st40" d="M152.8,351.81c0.17,0,0.34-0.09,0.43-0.25c0.14-0.24,0.06-0.54-0.18-0.67L115,328.92
							c-0.23-0.14-0.54-0.06-0.67,0.18c-0.14,0.24-0.06,0.54,0.18,0.67l38.05,21.97C152.63,351.79,152.72,351.81,152.8,351.81z"/>
					</g>
					<g>
						<path class="st16" d="M152.8,352.79c0.51,0,1.01-0.26,1.28-0.74c0.41-0.71,0.17-1.61-0.54-2.02l-38.05-21.97
							c-0.71-0.41-1.61-0.17-2.02,0.54c-0.41,0.71-0.17,1.61,0.54,2.02l38.05,21.97C152.3,352.73,152.55,352.79,152.8,352.79z"/>
					</g>
					<g>
						<path class="st16" d="M153.44,385.27c0.51,0,1.01-0.26,1.28-0.74c0.41-0.71,0.17-1.61-0.54-2.02l-38.05-21.97
							c-0.71-0.41-1.61-0.17-2.02,0.54c-0.41,0.71-0.17,1.61,0.54,2.02l38.05,21.97C152.93,385.2,153.18,385.27,153.44,385.27z"/>
					</g>
				</g>
				<g>
					<g>
						<g>
							<path class="st17" d="M204,321.13c-0.01,1.3-0.57,2.33-1.52,3.2c-0.39,0.36-0.82,0.62-1,0.74c-1.56,0.96-3.51,1.26-5.35,1.24
								c-1.9-0.02-4.3-0.72-5.71-2.13c-0.45-0.44-0.82-0.99-1.08-1.63c-0.12-0.29-0.17-0.59-0.21-0.77
								c-0.03-0.18-0.04-0.43-0.05-0.61l-0.01-1.73c0-0.62,0-1.26-0.01-1.91c-0.02-5.64-0.01-12.18-0.02-15.11c0-0.6,0-1.18,0-1.73
								c0-0.75,0.12-1.45,0.37-2.14c0.4-1.14,1.15-2.14,2.11-2.88c-0.21-0.33-0.34-0.74-0.35-1.22l0-0.47
								c0-1.45-0.16-2.23,0.32-3.07c0.39-0.67,1.07-1.19,1.69-1.48c0.86-0.42,1.84-0.64,2.79-0.69c0.21-0.02,0.6-0.02,0.95,0
								c0.95,0.05,1.79,0.25,2.42,0.51c0.22,0.09,0.26,0.11,0.53,0.25c0.69,0.36,1.13,0.76,1.46,1.24c0.42,0.6,0.42,1.13,0.43,1.81
								c0,0.15,0.01,1.88,0.01,1.88c0,0.43-0.11,0.82-0.34,1.22c1.44,1.1,2.45,2.82,2.51,5.02L204,321.13z"/>
							<g class="st38">
								<path class="st41" d="M201.48,325.07c2.06-1.27,2.51-2.84,2.52-3.94c0,1.09-0.7,2.18-2.11,3.02
									c-2.87,1.72-7.59,1.76-10.55,0.11c-1.5-0.84-2.26-1.96-2.26-3.09C189.31,326.33,197.44,327.55,201.48,325.07z"/>
							</g>
							<g class="st38">
								<path class="st41" d="M192.07,296.13v0.31c0,0.67,0.45,1.34,1.34,1.83c1.75,0.98,4.56,0.95,6.26-0.06
									c0.84-0.5,1.25-1.15,1.25-1.8v-0.3c-0.18,0.16-0.39,0.31-0.63,0.45c-0.39,0.23-0.83,0.43-1.3,0.57
									c-1.49,0.58-3.41,0.6-4.9,0.04c-0.47-0.14-0.9-0.31-1.3-0.53C192.52,296.48,192.28,296.32,192.07,296.13z"/>
							</g>
							<g class="st38">
								<path class="st16" d="M191.19,294.45c0,0.14,0.02,0.27,0.05,0.41C191.21,294.72,191.2,294.59,191.19,294.45z"/>
							</g>
							<path class="st1" d="M199.05,289.98c-1.45-0.82-3.78-0.79-5.19,0.05c-1.41,0.85-1.38,2.19,0.07,3.01
								c1.45,0.82,3.78,0.79,5.19-0.05C200.53,292.14,200.5,290.79,199.05,289.98z"/>
						</g>
					</g>
					<path class="st34" d="M189.61,307.24c2.52,2.94,8.62,3.3,12.01,1.22c0.74-0.46,1.31-0.98,1.75-1.55v9.51
						c-0.35,0.39-0.78,0.76-1.33,1.09c-3.04,1.82-8.05,1.87-11.18,0.11c-0.5-0.28-0.91-0.59-1.25-0.92V307.24z"/>
					<path class="st1" d="M196.34,314.89c1.98,0,3.88-0.46,5.24-1.27c0.34-0.2,0.64-0.43,0.9-0.68v-3.97
						c-0.12,0.09-0.25,0.17-0.39,0.25c-1.53,0.94-3.56,1.45-5.72,1.45c-2.24,0-4.31-0.55-5.87-1.52v4.03
						c0.24,0.2,0.5,0.38,0.79,0.54C192.64,314.48,194.43,314.89,196.34,314.89z"/>
				</g>
				<g>
					<g>
						<path class="st40" d="M153.44,384.28c0.07,0,0.14-0.02,0.21-0.05l77.54-36.99c0.25-0.12,0.35-0.41,0.23-0.66
							c-0.12-0.25-0.41-0.35-0.66-0.23l-77.54,36.99c-0.25,0.12-0.35,0.41-0.23,0.66C153.08,384.18,153.25,384.28,153.44,384.28z"/>
						<path class="st40" d="M153.31,377.79c0.08,0,0.15-0.02,0.23-0.06l79.16-41.58c0.24-0.13,0.34-0.42,0.21-0.66
							c-0.12-0.24-0.42-0.34-0.66-0.21l-79.16,41.58c-0.24,0.13-0.33,0.42-0.21,0.66C152.96,377.69,153.13,377.79,153.31,377.79z"/>
						<path class="st40" d="M153.18,371.29c0.08,0,0.16-0.02,0.24-0.06l80.78-46.18c0.24-0.13,0.32-0.43,0.19-0.67
							c-0.13-0.24-0.43-0.32-0.67-0.19l-80.78,46.18c-0.24,0.13-0.32,0.43-0.19,0.67C152.84,371.2,153.01,371.29,153.18,371.29z"/>
						<path class="st40" d="M153.06,364.8c0.09,0,0.18-0.02,0.25-0.07l82.4-50.78c0.23-0.14,0.31-0.44,0.17-0.67
							c-0.14-0.23-0.44-0.31-0.67-0.17l-82.4,50.78c-0.23,0.14-0.31,0.44-0.17,0.67C152.73,364.71,152.89,364.8,153.06,364.8z"/>
						<path class="st40" d="M152.93,358.3c0.09,0,0.19-0.03,0.27-0.08l84.02-55.37c0.23-0.15,0.29-0.45,0.14-0.68
							c-0.15-0.23-0.45-0.29-0.68-0.14l-84.02,55.37c-0.23,0.15-0.29,0.45-0.14,0.68C152.61,358.22,152.77,358.3,152.93,358.3z"/>
						<path class="st40" d="M152.8,351.81c0.1,0,0.2-0.03,0.28-0.09l85.65-59.97c0.22-0.16,0.28-0.46,0.12-0.69
							c-0.16-0.22-0.46-0.28-0.69-0.12l-85.65,59.97c-0.22,0.16-0.28,0.46-0.12,0.69C152.5,351.73,152.65,351.81,152.8,351.81z"/>
					</g>
					<g>
						<path class="st40" d="M153.44,384.28c0.28-0.01,0.5-0.23,0.49-0.5l-0.32-16.24l-0.32-16.24c-0.01-0.27-0.22-0.48-0.49-0.48
							c-0.28,0.01-0.5,0.23-0.49,0.5l0.32,16.24l0.32,16.24C152.95,384.07,153.17,384.28,153.44,384.28z"/>
						<path class="st40" d="M162.32,344.14c-0.27,0-0.49,0.22-0.49,0.49l-0.13,17.51l-0.13,17.46c0,0.1,0.03,0.24,0.08,0.31
							c0.08,0.14,0.22,0.23,0.4,0.24c0.31-0.02,0.5-0.24,0.5-0.49l0.13-17.51l0.13-17.46c0-0.1-0.03-0.24-0.08-0.31
							c-0.08-0.14-0.22-0.23-0.4-0.24C162.33,344.14,162.32,344.14,162.32,344.14z"/>
						<path class="st40" d="M171.84,337.46c-0.27-0.01-0.5,0.21-0.5,0.48l-0.58,18.79l-0.57,18.68c0,0.08,0.01,0.27,0.06,0.33
							c0.06,0.15,0.21,0.27,0.4,0.28c0.31-0.02,0.51-0.23,0.51-0.48l0.58-18.79l0.57-18.68c0-0.08-0.01-0.27-0.06-0.33
							c-0.06-0.15-0.21-0.27-0.4-0.28C171.85,337.46,171.85,337.46,171.84,337.46z"/>
						<path class="st40" d="M181.37,330.78c-0.27-0.01-0.5,0.2-0.51,0.48l-1.04,20.07l-1.01,19.9c0,0.07,0,0.3,0.04,0.36
							c0.05,0.17,0.2,0.3,0.4,0.32c0.31-0.02,0.51-0.22,0.52-0.48l1.03-20.07l1.01-19.9c0-0.07,0-0.3-0.04-0.36
							c-0.05-0.17-0.2-0.3-0.4-0.32C181.38,330.78,181.37,330.78,181.37,330.78z"/>
						<path class="st40" d="M190.89,324.1c-0.27-0.02-0.5,0.2-0.51,0.47l-1.49,21.35l-1.46,21.12c0,0.06-0.01,0.34,0.02,0.38
							c0.03,0.18,0.19,0.34,0.4,0.35c0.31-0.01,0.52-0.21,0.53-0.47l1.49-21.35l1.46-21.12c0-0.06,0.01-0.34-0.02-0.38
							c-0.03-0.18-0.19-0.33-0.4-0.35C190.9,324.1,190.9,324.1,190.89,324.1z"/>
						<path class="st40" d="M200.42,317.41c-0.27-0.02-0.5,0.19-0.52,0.46l-1.94,22.62l-1.9,22.35c0,0.05-0.02,0.37,0.01,0.4
							c0.02,0.2,0.18,0.37,0.4,0.39c0.32-0.01,0.52-0.2,0.54-0.46l1.94-22.62l1.9-22.35c0-0.05,0.02-0.37-0.01-0.4
							c-0.02-0.2-0.18-0.37-0.4-0.39C200.43,317.42,200.42,317.41,200.42,317.41z"/>
						<path class="st40" d="M209.94,310.73c-0.28-0.03-0.51,0.18-0.53,0.45l-2.39,23.9l-2.34,23.57c0,0.04-0.03,0.4-0.01,0.43
							c0.01,0.22,0.17,0.4,0.4,0.43c0.32,0,0.52-0.2,0.54-0.45l2.39-23.9l2.34-23.57c0-0.04,0.03-0.4,0.01-0.43
							c-0.01-0.22-0.17-0.4-0.4-0.43C209.95,310.73,209.95,310.73,209.94,310.73z"/>
						<path class="st40" d="M219.47,304.05c-0.28-0.03-0.51,0.17-0.54,0.44l-2.84,25.18l-2.79,24.79c0,0.02-0.04,0.43-0.03,0.45
							c-0.01,0.23,0.16,0.44,0.4,0.47c0.32,0,0.53-0.19,0.55-0.44l2.84-25.18l2.79-24.79c0-0.02,0.04-0.43,0.03-0.45
							c0.01-0.23-0.16-0.44-0.4-0.47C219.48,304.05,219.47,304.05,219.47,304.05z"/>
						<path class="st40" d="M228.99,297.37c-0.28-0.04-0.51,0.16-0.55,0.43l-3.29,26.45l-3.23,26.01c0,0.01-0.06,0.47-0.05,0.47
							c-0.02,0.25,0.16,0.47,0.4,0.51c0.32,0,0.53-0.18,0.56-0.43l3.29-26.45l3.23-26.01c0-0.01,0.06-0.47,0.05-0.47
							c0.02-0.25-0.16-0.47-0.4-0.51C229,297.37,229,297.37,228.99,297.37z"/>
						<path class="st40" d="M230.97,347.13c0.24,0,0.45-0.18,0.49-0.43l3.74-27.73l3.74-27.73c0.04-0.27-0.15-0.52-0.42-0.55
							c-0.28-0.05-0.52,0.15-0.55,0.42l-3.74,27.73l-3.74,27.73c-0.04,0.27,0.15,0.52,0.42,0.55
							C230.93,347.13,230.95,347.13,230.97,347.13z"/>
					</g>
					<g>
						<g>
							<path class="st16" d="M152.66,385.05c-0.43-0.26-0.69-0.73-0.7-1.23l-0.63-32.48c-0.01-0.49,0.23-0.96,0.63-1.24l85.65-59.97
								c0.48-0.34,1.12-0.36,1.62-0.05c0.5,0.31,0.77,0.88,0.7,1.46L232.44,347c-0.07,0.49-0.38,0.92-0.83,1.14l-77.54,36.99
								c-0.2,0.1-0.42,0.14-0.64,0.14C153.17,385.27,152.9,385.19,152.66,385.05z M236.54,294.49l-82.24,57.58l0.57,29.4
								l74.75-35.66L236.54,294.49z"/>
						</g>
						<g>
							<path class="st16" d="M152.88,412.6c0.18,0,0.36-0.03,0.54-0.1l79.66-31.36c0.59-0.23,0.96-0.81,0.94-1.45l-1.57-32.96
								c-0.04-0.81-0.72-1.44-1.55-1.41c-0.82,0.04-1.44,0.73-1.41,1.55l1.52,31.9l-78.67,30.97c-0.76,0.3-1.13,1.16-0.83,1.92
								C151.73,412.25,152.29,412.6,152.88,412.6z"/>
						</g>
						<g>
							<path class="st16" d="M212.57,388.79c0.9-0.05,1.52-0.74,1.48-1.56l-1.57-28.98c-0.04-0.82-0.73-1.43-1.56-1.4
								c-0.82,0.04-1.44,0.74-1.4,1.56l1.57,28.98C211.14,388.18,211.79,388.79,212.57,388.79z"/>
						</g>
						<g>
							<path class="st16" d="M236.02,310.84c0.73,0,1.36-0.54,1.46-1.28l2.39-17.74l6.51-11.68l13.57-13.44
								c0.58-0.57,0.58-1.51,0.01-2.09c-0.57-0.58-1.51-0.58-2.09-0.01l-13.72,13.59c-0.1,0.1-0.18,0.21-0.25,0.33l-6.74,12.11
								c-0.09,0.16-0.15,0.34-0.17,0.52l-2.43,18.02c-0.11,0.81,0.46,1.55,1.27,1.66C235.89,310.84,235.96,310.84,236.02,310.84z"/>
						</g>
					</g>
				</g>
			</g>
			<path class="st7" d="M254.33,251.18l-8.32,4.98l-1.46,3.99c-0.3,0.82-0.19,1.74,0.29,2.47l1.17,1.76l5.78,3.1l3.09-1.32
				l-1.74-1.53c-1.11-1.59,0.47-4.53,1.74-4.16l1.3,0.75l1.78-6.42l1.56-3.35l-2.85-1.84L254.33,251.18z"/>
			<path class="st10" d="M295.52,190.82c4.22,4.29-0.45,19.21-13.98,37.23c-3.74,9.18-15.76,16.89-23.55,28.68
				c-1.67-1.51-2.92-3.53-6.03-4.27c8.99-11.8,11.37-23.44,20.29-30.79c3.02-7.76,7.25-16.46,9.54-22.35
				C284.62,191.26,291.84,185.37,295.52,190.82z"/>
			<path class="st7" d="M225.29,230.97l-2.19-1.96l-4.35,3.86l-2.33,1.91l-3.03,3.11c-0.26,0.32-0.1,4.5-0.13,4.91l1.97,1.85
				l3.13,2.12h2.9l-2.14-1.66c-0.76-1.27-0.56-3.19,0.59-3.76l1.85-0.1l1.72,0.99l0.64-3.18l-0.92-3.63L225.29,230.97z"/>
			<path class="st10" d="M219.12,232.47c4.66-7.33,9.1-14.66,13.24-20.8l5.81,8.6c-4.13,4.24-9.34,9.26-13.91,15.06
				C222.49,234.78,221.46,232.61,219.12,232.47z"/>
		</g>
	</g>
</g>
</svg>
